<?xml version="1.0" encoding="utf-8"?>
<!-- Generator: Adobe Illustrator 22.1.0, SVG Export Plug-In . SVG Version: 6.00 Build 0)  -->
<svg version="1.1" id="レイヤー_1" xmlns="http://www.w3.org/2000/svg" xmlns:xlink="http://www.w3.org/1999/xlink" x="0px"
	 y="0px" viewBox="0 0 500 500" style="enable-background:new 0 0 500 500;" xml:space="preserve">
<style type="text/css">
	.st0{fill:#706A6A;}
	.st1{fill:none;stroke:#000000;stroke-width:5;stroke-miterlimit:10;}
	.st2{fill:#393434;}
	.st3{fill:#948F8F;}
	.st4{fill:none;stroke:#000000;stroke-width:6;stroke-miterlimit:10;}
</style>
<g>
	<g>
		<g>
			<polyline class="st0" points="120.6,479.9 373,396.7 291.7,303.5 			"/>
			<polyline class="st1" points="120.6,479.9 373,396.7 291.7,303.5 			"/>
		</g>
		<g>
			<polyline class="st2" points="285.7,306.5 286,305.7 175.5,481.3 121,480.3 156,370.9 150.5,351.1 			"/>
			<polyline class="st1" points="285.7,306.5 286,305.7 175.5,481.3 121,480.3 156,370.9 150.5,351.1 			"/>
		</g>
		<g>
			<g>
				<g>
					<polygon class="st0" points="260.1,18.8 337,144.9 310.1,228.3 306,291 120.3,333.4 140.6,233.7 146.2,223 173,221.7 
						214.8,188.9 211.4,158.2 242.3,108.7 243.2,110.3 301.1,83 198,72.2 					"/>
				</g>
				<g>
					<polygon class="st2" points="197.7,72.3 301.1,83 242.4,109.9 212.9,91.9 190.1,127.7 184.3,96.2 					"/>
				</g>
				<g>
					<polygon class="st3" points="212.9,91.9 242.2,109.3 244,109.8 209.5,157.5 215.4,190.2 130.9,174.6 153.5,153.9 190.8,127.3 
											"/>
				</g>
				<g>
					<polygon class="st2" points="130.6,174.7 214.8,189.7 173,221.7 148,223.7 148.2,211.4 					"/>
				</g>
			</g>
			<g>
				<g>
					<polyline class="st4" points="130,175.6 154.4,155.7 189,127 184.3,96.2 197.5,72.5 260.5,20.8 339,144.9 308.6,226.9 
						307.9,291.6 122.2,334.1 139.5,232.1 148,223.8 148.2,211.4 131.3,176.6 216.6,188.8 172.5,219.8 147.1,224.4 147,224.4 					
						"/>
				</g>
				<g>
					<polyline class="st4" points="214.7,189 211.4,158.2 242.3,108.7 243.2,110.3 301.1,83 197.7,72.3 					"/>
				</g>
				<g>
					<polyline class="st4" points="189.2,126.1 214.4,93.2 244.2,109.3 242.1,110 					"/>
				</g>
			</g>
		</g>
		<g>
			<path class="st4" d="M0-1"/>
		</g>
	</g>
</g>
</svg>
