<?xml version="1.0" encoding="utf-8"?>
<!-- Generator: Adobe Illustrator 22.1.0, SVG Export Plug-In . SVG Version: 6.00 Build 0)  -->
<svg version="1.1" id="レイヤー_1" xmlns="http://www.w3.org/2000/svg" xmlns:xlink="http://www.w3.org/1999/xlink" x="0px"
	 y="0px" viewBox="0 0 500 500" style="enable-background:new 0 0 500 500;" xml:space="preserve">
<style type="text/css">
	.st0{filter:url(#AI_ぼかし_ガウス_4);}
	.st1{fill:#706A6A;stroke:#000000;stroke-width:5;stroke-miterlimit:10;}
	.st2{fill:#393434;stroke:#000000;stroke-width:5;stroke-miterlimit:10;}
	.st3{fill:#706A6A;}
	.st4{fill:#393434;}
	.st5{fill:#948F8F;}
	.st6{fill:none;stroke:#000000;stroke-width:6;stroke-miterlimit:10;}
</style>
<filter  id="AI_ぼかし_ガウス_4">
	<feGaussianBlur  stdDeviation="4"></feGaussianBlur>
</filter>
<g class="st0">
	<path class="st1" d="M120.4,480.9c0,0,141.9,17.1,251.9-84.9c25.4-23.5-80.2-93.3-80.2-93.3"/>
	<path class="st2" d="M286.6,306.9c0.2-0.5,0.3-0.8,0.3-0.8s-43,110.4-112.1,174.4c-2.9,2.7-54.8,0-54.8,0s30.5-97.5,36.8-109.2
		c2.5-4.6-7.2-19.6-7.2-19.6"/>
	<g>
		<g>
			<path class="st3" d="M302,83.5c-17.2-25.8-47.1-48-103.7-10.4c16.2-23.4,37.5-48.6,62-53.3c90.8-17.4,76.9,25.8,77.7,125.1
				c0.8,99.4-28.6,82.7-28.6,82.7s2.5,46.3-2.5,63.7c-4.9,17.4-204.5,94.8-185.7,42.5c26.2-72.8,9-94.1,18.8-100.9
				c3.5-2.4,5.7-6,7-9.5c0.5,0,16.9-0.4,25.7-2.7c28.5-7.2,38.4-17.4,42.9-31.5c4.5-16.2-5.3-31.4-5.3-31.4l32.7-48.5c0,0,0,0,0,0
				C258.7,108.5,302,83.5,302,83.5z"/>
			<path class="st4" d="M198.3,73.1c56.6-37.7,86.5-15.4,103.7,10.4c0,0-43.3,25-58.9,25.8c0.4-19.1-14.9-25.7-29.5-16.7
				c0,0-0.8,8.3-23.7,34.1c0,0-13.9-19.7-6.5-31.1C187.7,88.9,192.7,81.1,198.3,73.1z"/>
			<path class="st5" d="M215.7,189.2c-25.8-27.8-84.7-13.6-84.7-13.6c0.5-7.6,7.7-13,23-20.9c31.1-15.9,36-28.1,36-28.1
				c22.9-25.8,23.7-34.1,23.7-34.1c14.5-9,29.9-2.4,29.5,16.7c0,0,0,0,0,0l-32.7,48.5C210.4,157.8,220.2,173.1,215.7,189.2z"/>
			<path class="st4" d="M172.8,220.8c-8.9,2.2-25.2,2.6-25.7,2.7c2.3-6.3,2-12.5,2-12.5c-12.1-17.3-18.6-27.4-18.1-35.3
				c0,0,58.9-14.2,84.7,13.6C211.2,203.3,201.3,213.6,172.8,220.8z"/>
		</g>
		<g>
			<path class="st6" d="M131,175.6c0.5-7.6,7.7-13,23-20.9c31.1-15.9,36-28.1,36-28.1s-13.9-19.7-6.5-31.1
				c4.3-6.7,9.3-14.5,14.9-22.5c16.2-23.4,37.5-48.6,62-53.3c90.8-17.4,76.9,25.8,77.7,125.1c0.8,99.4-28.6,82.7-28.6,82.7
				s2.5,46.3-2.5,63.7c-4.9,17.4-204.5,94.8-185.7,42.5c26.2-72.8,9-94.1,18.8-100.9c3.5-2.4,5.7-6,7-9.5c2.3-6.3,2-12.5,2-12.5
				C137,193.6,130.4,183.5,131,175.6c0,0,58.9-14.2,84.7,13.6c-4.5,14.1-14.4,24.3-42.9,31.5c-8.9,2.2-25.2,2.6-25.7,2.7
				c0,0,0,0,0,0"/>
			<path class="st6" d="M215.7,189.2c4.5-16.2-5.3-31.4-5.3-31.4l32.7-48.5c0,0,0,0,0,0c15.6-0.8,58.9-25.8,58.9-25.8
				c-17.2-25.8-47.1-48-103.7-10.4"/>
			<path class="st6" d="M190,126.7c22.9-25.8,23.7-34.1,23.7-34.1c14.5-9,29.9-2.4,29.5,16.7c0,0.3,0,0.5,0,0.8"/>
		</g>
	</g>
	<path class="st6" d="M287.1,306.5"/>
</g>
</svg>
