<?xml version="1.0" encoding="utf-8"?>
<!-- Generator: Adobe Illustrator 22.1.0, SVG Export Plug-In . SVG Version: 6.00 Build 0)  -->
<svg version="1.1" id="レイヤー_1" xmlns="http://www.w3.org/2000/svg" xmlns:xlink="http://www.w3.org/1999/xlink" x="0px"
	 y="0px" viewBox="0 0 330 462" style="enable-background:new 0 0 330 462;" xml:space="preserve">
<style type="text/css">
	.st0{fill:#EE5253;}
	.st1{fill:#E9EFF5;}
	.st2{fill:#323639;}
	.st3{fill:#C8CFD6;}
	.st4{fill:#3A3C3D;}
	.st5{fill:#FFFFFF;}
	.st6{fill:#BFBFBF;}
	.st7{fill:#E5E69A;}
	.st8{fill:#93BB56;}
	.st9{fill:#E19241;}
	.st10{fill:#EEE95D;}
	.st11{fill:#B6DDE5;}
	.st12{fill:#54A0FF;}
	.st13{fill:#EDE45A;}
	.st14{fill:#85C6D4;}
	.st15{fill:#A8B4B7;}
	.st16{fill:#7C9189;}
	.st17{fill:#8DA4A5;}
	.st18{fill:#A4B3AE;}
	.st19{fill:#BBC7C1;}
	.st20{fill:#A8BFC9;}
	.st21{fill:#3E5557;}
	.st22{fill:#557CC3;}
	.st23{fill:#706A6A;}
	.st24{fill:#393434;}
	.st25{fill:#948F8F;}
	.st26{fill:none;stroke:#000000;stroke-width:6;stroke-miterlimit:10;}
	.st27{fill:none;}
	.st28{fill:#666666;}
</style>
<path class="st0" d="M284.4,431.7H46.6c-8.9,0-16.1-7.2-16.1-16.1V45.4c0-8.9,7.2-16.1,16.1-16.1h237.9c8.9,0,16.1,7.2,16.1,16.1
	v370.2C300.5,424.5,293.3,431.7,284.4,431.7z"/>
<g>
	<g>
		<circle class="st1" cx="263" cy="271" r="27"/>
	</g>
	<rect x="242.4" y="267" class="st2" width="41.3" height="7.9"/>
</g>
<g>
	<path class="st1" d="M290,361c0-7.2-5.8-13-13-13H55c-7.2,0-13,5.8-13,13v18h248V361z"/>
	<path class="st3" d="M42,379v18c0,7.2,5.8,13,13,13H277c7.2,0,13-5.8,13-13v-18H42z"/>
</g>
<path class="st1" d="M278.8,336.7h-32.6c-4,0-7.2-3.2-7.2-7.2v-13c0-4,3.2-7.2,7.2-7.2h32.6c4,0,7.2,3.2,7.2,7.2v13
	C286,333.5,282.8,336.7,278.8,336.7z"/>
<g>
	<rect x="58" y="432" class="st4" width="45" height="11"/>
	<rect x="228" y="432" transform="matrix(-1 -3.298440e-11 3.298440e-11 -1 501 874.9716)" class="st4" width="45" height="11"/>
</g>
<g>
	<path class="st5" d="M91.9,295c0.2-0.2,0.4-0.3,0.6-0.4c0.2,0,0.4,0,0.5,0.1c0.1,0.1,0.2,0.2,0.3,0.4c0,0.2,0,0.4-0.1,0.6
		c-0.6,0.8-1.5,2-2.6,3.5c-1.2,1.5-2.5,3.1-4,4.8c-1.5,1.7-3.2,3.5-5,5.2c-1.8,1.8-3.6,3.4-5.5,4.8c-1.9,1.4-3.8,2.6-5.6,3.5
		c-1.9,0.9-3.7,1.4-5.4,1.4c-0.7,0-1.5-0.2-2.3-0.5c-0.9-0.3-1.6-0.8-2.4-1.4c-0.7-0.7-1.3-1.5-1.8-2.5c-0.5-1-0.7-2.3-0.7-3.8
		c0-1.2,0.2-2.6,0.7-4.2c0.5-1.6,1.2-3.1,2.1-4.7c0.9-1.6,2-3.2,3.2-4.7c1.3-1.5,2.6-2.9,4.2-4.1c1.5-1.2,3.1-2.1,4.9-2.9
		c1.7-0.7,3.6-1.1,5.5-1.1c0.5,0,0.9,0,1.2,0.1c0.4,0,0.7,0.1,1,0.2c0.5-1.2,1-2.2,1.6-3c0.6-0.8,1.1-1.2,1.5-1.2
		c0.4,0,0.9,0.1,1.3,0.4c0.5,0.2,0.9,0.5,1.2,0.8c0.4,0.3,0.7,0.7,0.9,1c0.2,0.4,0.3,0.7,0.3,1c0,0.6-0.3,1.2-0.9,1.7
		c-0.6,0.5-1.2,1.1-1.9,1.8c-0.7,0.7-1.3,1.5-1.9,2.5c-0.6,1-0.9,2.2-0.9,3.7c0,1.2-0.1,1.9-0.5,2.1s-0.6,0.1-1-0.4
		c-0.4-0.5-0.7-1.1-1-2c-0.3-0.9-0.4-1.8-0.4-2.8c0-0.5,0-1.1,0.1-1.6c0.1-0.6,0.2-1.1,0.4-1.7c-0.1,0-0.2-0.1-0.3-0.1
		c-0.1,0-0.2,0-0.4,0c-1.1,0-2.2,0.4-3.4,1.1c-1.2,0.7-2.3,1.7-3.4,2.9c-1.1,1.2-2.1,2.5-3.1,4c-1,1.5-1.8,3-2.5,4.6
		s-1.3,3.1-1.7,4.6c-0.4,1.5-0.6,2.8-0.6,4c0,1.2,0.2,2.1,0.7,2.9c0.5,0.7,1.2,1.1,2.3,1.1s2.3-0.5,3.8-1.4c1.5-0.9,3.1-2,4.7-3.4
		c1.7-1.4,3.4-2.9,5.1-4.6c1.7-1.7,3.3-3.3,4.8-4.9c1.5-1.6,2.8-3.1,3.9-4.4C90.6,296.5,91.4,295.6,91.9,295z"/>
	<path class="st5" d="M116.5,295.3c0.2-0.2,0.4-0.4,0.6-0.4c0.2,0,0.4,0,0.5,0c0.1,0.1,0.2,0.2,0.3,0.4c0,0.2,0,0.4-0.1,0.6
		c-0.7,1-1.4,2-2.3,3c-0.9,1-1.9,2-2.9,2.9c-1.1,1-2.2,1.8-3.4,2.6c-1.2,0.8-2.5,1.4-3.8,1.9c-1,1.6-2.1,3.2-3.4,4.7
		c-1.3,1.5-2.6,2.8-3.9,4c-1.4,1.2-2.7,2.1-4.1,2.8c-1.4,0.7-2.8,1.1-4.2,1.1c-0.5,0-1,0-1.7-0.2c-0.7-0.1-1.3-0.4-1.9-0.8
		c-0.6-0.5-1.1-1.1-1.6-2c-0.4-0.9-0.7-2.2-0.7-3.8c0-1,0.1-2.2,0.4-3.5c0.3-1.3,0.7-2.6,1.1-3.9c0.5-1.3,1-2.6,1.6-3.8
		s1.2-2.3,1.9-3.3c0.7-1,1.3-1.7,2-2.3c0.7-0.6,1.2-0.9,1.8-0.9c0.6,0,1.1,0,1.5,0.1c0.4,0,0.7,0.1,1,0.2c1-1.8,2.3-3.1,3.9-4.1
		c1.6-1,3.4-1.5,5.4-1.5c1.1,0,1.9,0.2,2.6,0.6c0.7,0.4,1.2,0.8,1.6,1.4c0.4,0.6,0.7,1.2,0.9,1.9c0.2,0.7,0.2,1.3,0.2,1.9
		c0,1.1-0.3,2.4-0.8,4c-0.5,1.6-1.3,3.2-2.2,4.9c1-0.5,2-1,3-1.7c0.9-0.7,1.8-1.4,2.6-2.1c0.8-0.8,1.6-1.5,2.2-2.3
		C115.4,296.7,116,296,116.5,295.3z M91.8,315.3c0.9,0,1.8-0.2,2.7-0.7c0.9-0.4,1.8-1,2.7-1.8c0.9-0.7,1.7-1.6,2.6-2.6
		c0.8-1,1.6-2,2.4-3.1c-0.7,0.1-1.4,0.2-2.2,0.2c-1.3,0-2.4-0.2-3.2-0.6c-0.8-0.4-1.4-0.9-1.9-1.5c-0.4-0.6-0.7-1.3-0.9-2.1
		c-0.1-0.8-0.2-1.6-0.2-2.4c0-0.1,0-0.1,0-0.2c0-0.1,0-0.2,0-0.2c-0.5,0.8-1.1,1.7-1.6,2.7c-0.6,1-1.1,1.9-1.5,2.9
		c-0.5,1-0.9,2-1.2,3s-0.5,2-0.5,2.9c0,0.6,0.1,1.2,0.3,1.6c0.2,0.4,0.4,0.8,0.7,1c0.3,0.3,0.6,0.5,0.9,0.6
		C91.2,315.2,91.5,315.3,91.8,315.3z M103.7,304.5c1.1-1.9,2-3.8,2.7-5.6c0.7-1.8,1-3.2,1-4.3c0-0.8-0.2-1.4-0.5-1.8
		c-0.4-0.5-0.9-0.7-1.7-0.7c-1,0-1.9,0.3-2.8,0.9c-0.9,0.6-1.7,1.3-2.3,2.2c-0.7,0.9-1.2,1.8-1.6,2.7c-0.4,1-0.6,1.8-0.6,2.6
		s0.1,1.4,0.4,2c0.3,0.5,0.6,1,1,1.3s0.8,0.6,1.3,0.8c0.5,0.1,0.9,0.2,1.4,0.2C102.6,304.6,103.2,304.6,103.7,304.5z"/>
	<path class="st5" d="M138.9,295.3c0.2-0.2,0.4-0.4,0.6-0.4c0.2,0,0.4,0,0.6,0c0.1,0.1,0.2,0.2,0.3,0.4c0,0.2,0,0.4-0.2,0.6
		c-0.6,0.8-1.4,2-2.4,3.5c-1,1.5-2.2,3-3.5,4.7s-2.7,3.4-4.2,5.2c-1.5,1.8-3,3.3-4.6,4.7c-1.6,1.4-3.1,2.6-4.6,3.5
		c-1.5,0.9-2.9,1.4-4.3,1.4c-1.7,0-3.1-0.3-4.1-0.8c-1-0.5-1.8-1.3-2.3-2.2c-0.5-0.9-0.9-1.9-1-3c-0.2-1.1-0.3-2.2-0.3-3.3
		c0-1.1,0.2-2.5,0.6-4.3c0.4-1.7,1-3.7,1.8-5.8c0.8-2.1,1.7-4.3,2.7-6.6c1.1-2.3,2.2-4.6,3.5-6.8c1.3-2.3,2.6-4.4,4.1-6.4
		c1.5-2,3-3.8,4.6-5.4c1.6-1.6,3.2-2.8,4.9-3.7c1.7-0.9,3.3-1.4,5-1.4c0.5,0,1,0.1,1.5,0.2c0.5,0.1,1,0.3,1.4,0.7
		c0.4,0.3,0.8,0.8,1,1.3c0.3,0.5,0.4,1.3,0.4,2.1c0,1.8-0.7,4-2,6.5c-1.3,2.5-3.1,5.2-5.4,8c-2.3,2.8-4.9,5.7-7.9,8.6
		c-3,2.9-6.2,5.7-9.5,8.3c-0.4,1.4-0.6,2.7-0.7,3.9c-0.1,1.2,0.1,2.2,0.4,3.1c0.3,0.9,0.8,1.5,1.5,2s1.6,0.7,2.8,0.7
		c1,0,2.2-0.4,3.4-1.2c1.2-0.8,2.5-1.8,3.8-3c1.3-1.2,2.6-2.6,3.8-4.1c1.3-1.5,2.4-2.9,3.5-4.4c1.1-1.4,2.1-2.7,2.9-3.9
		C137.8,296.8,138.4,295.9,138.9,295.3z M137.7,272.6c-0.8,0-1.8,0.4-3,1.3c-1.2,0.9-2.4,2-3.7,3.4c-1.3,1.4-2.7,3.1-4.1,5
		c-1.4,1.9-2.7,3.9-4,6.1c-1.3,2.1-2.5,4.3-3.6,6.5c-1.1,2.2-2,4.3-2.8,6.4c2.5-1.8,4.8-3.8,7-6c2.2-2.2,4.2-4.3,5.9-6.4
		c1.8-2.1,3.3-4.2,4.6-6.1c1.3-2,2.3-3.7,3.1-5.2c0.7-1.5,1.2-2.7,1.3-3.6C138.6,273.1,138.3,272.6,137.7,272.6z"/>
	<path class="st5" d="M168.6,295.3c0.2-0.2,0.4-0.4,0.6-0.4c0.2,0,0.4,0,0.6,0c0.2,0.1,0.2,0.2,0.3,0.4s0,0.4-0.2,0.6
		c-0.6,0.8-1.4,2-2.5,3.5c-1.1,1.5-2.3,3-3.6,4.7s-2.7,3.4-4.2,5.2c-1.5,1.8-2.9,3.3-4.3,4.7c-1.4,1.4-2.7,2.6-3.9,3.5
		c-1.2,0.9-2.3,1.4-3.2,1.4c-1.1,0-2-0.3-2.5-0.8c-0.5-0.5-0.9-1.1-1-1.7c-0.2-0.7-0.2-1.6-0.1-2.6c-0.6,1-1.3,1.8-2.1,2.6
		c-0.7,0.6-1.4,1.2-2.3,1.7c-0.9,0.5-1.8,0.8-2.8,0.8c-0.7,0-1.5-0.1-2.3-0.4c-0.8-0.3-1.5-0.7-2.2-1.3c-0.7-0.6-1.2-1.4-1.7-2.4
		c-0.4-1-0.7-2.2-0.7-3.7c0-1.2,0.2-2.6,0.7-4.2c0.5-1.6,1.2-3.2,2.1-4.8c0.9-1.6,2-3.2,3.2-4.8c1.3-1.6,2.6-3,4.2-4.2
		c1.5-1.2,3.1-2.2,4.9-2.9c1.7-0.7,3.6-1.1,5.5-1.1c1,0,1.8,0.2,2.4,0.5c0.7,0.3,1.2,0.7,1.6,1.3c0.4,0.5,0.7,1.2,0.9,1.9
		c0.2,0.7,0.3,1.5,0.3,2.4c0,0.8-0.2,1.8-0.6,2.8c0.3,0.1,0.6,0.2,1,0.3c0.3,0.1,0.7,0.3,1,0.4c0.3,0.2,0.6,0.3,0.8,0.5
		c0.2,0.1,0.3,0.3,0.3,0.4c0,0.1-0.3,0.5-0.9,1.3c-0.6,0.8-1.3,1.7-2.1,2.9c-0.8,1.1-1.7,2.3-2.5,3.6c-0.9,1.3-1.6,2.5-2.1,3.6
		c-0.6,1.1-0.9,2-1,2.7c-0.1,0.7,0.3,1.1,1.1,1.1c0.6,0,1.3-0.4,2.3-1.2c1-0.8,2-1.8,3.2-3c1.2-1.2,2.3-2.6,3.6-4.1
		c1.2-1.5,2.4-2.9,3.5-4.4c1.1-1.4,2.1-2.7,3-3.9C167.5,296.8,168.2,295.9,168.6,295.3z M137.9,316.3c0.9,0,1.8-0.3,2.8-1.1
		c1-0.7,2-1.6,3-2.7c1-1.1,2-2.3,3-3.7c1-1.4,1.9-2.7,2.8-4c-0.3-0.3-0.5-0.6-0.7-0.9c-0.2-0.3-0.3-0.5-0.3-0.6
		c0-0.1,0.2-0.3,0.7-0.8c0.5-0.5,1-1.1,1.5-1.9c0.6-0.8,1.1-1.6,1.5-2.6c0.5-1,0.7-2,0.7-3.1c0-0.8-0.2-1.4-0.5-1.9
		c-0.3-0.5-0.8-0.7-1.5-0.7c-1.7,0-3.3,0.6-4.9,1.8s-3.1,2.7-4.4,4.4c-1.3,1.8-2.5,3.7-3.4,5.8c-1,2.1-1.6,4-2,5.8
		c-0.4,1.8-0.5,3.2-0.2,4.4C136.1,315.7,136.8,316.3,137.9,316.3z"/>
</g>
<g>
	<path class="st1" d="M273.4,230H57.6c-8.9,0-16.1-7.2-16.1-16.1V64.6c0-8.9,7.2-16.1,16.1-16.1h215.9c8.9,0,16.1,7.2,16.1,16.1
		v149.4C289.5,222.8,282.3,230,273.4,230z"/>
	<g>
		<g>
			<path class="st6" d="M274.7,215H56.3c-4.5,0-8.3-3.7-8.3-8.3v-3c0-4.5,3.7-8.3,8.3-8.3h218.5c4.5,0,8.3,3.7,8.3,8.3v3
				C283,211.3,279.3,215,274.7,215z"/>
		</g>
		<g>
			<path class="st6" d="M274.7,133.6H56.3c-4.5,0-8.3-3.7-8.3-8.3v-3c0-4.5,3.7-8.3,8.3-8.3h218.5c4.5,0,8.3,3.7,8.3,8.3v3
				C283,129.8,279.3,133.6,274.7,133.6z"/>
		</g>
	</g>
</g>
<g>
	<path class="st7" d="M261.5,78.8c0-0.6-0.2-1.2-0.5-1.8l-8.9-15.4c-1.5-2.6-5.2-2.6-6.6,0L236.6,77c-0.3,0.6-0.5,1.2-0.5,1.8H236
		V114h25.6L261.5,78.8L261.5,78.8z"/>
	<path class="st8" d="M253.2,67h-8.7c-2.1,0-3.9-1.7-3.9-3.9v-3.3c0-2.1,1.7-3.9,3.9-3.9h8.7c2.1,0,3.9,1.7,3.9,3.9v3.3
		C257,65.2,255.3,67,253.2,67z"/>
	<rect x="236" y="78.8" class="st8" width="25.6" height="15.1"/>
</g>
<g>
	<path class="st9" d="M261.5,160.4c0-0.6-0.2-1.2-0.5-1.8l-8.9-15.1c-1.5-2.5-5.2-2.5-6.6,0l-8.9,15.1c-0.3,0.6-0.5,1.2-0.5,1.8H236
		V195h25.6L261.5,160.4L261.5,160.4z"/>
	<path class="st10" d="M253.2,148.8h-8.7c-2.1,0-3.9-1.7-3.9-3.9v-3.1c0-2.1,1.7-3.9,3.9-3.9h8.7c2.1,0,3.9,1.7,3.9,3.9v3.1
		C257,147,255.3,148.8,253.2,148.8z"/>
	<rect x="236" y="160.4" class="st10" width="25.6" height="14.8"/>
</g>
<g>
	<path class="st11" d="M178.5,160.4c0-0.6-0.2-1.2-0.5-1.8l-8.9-15.1c-1.5-2.5-5.2-2.5-6.6,0l-8.9,15.1c-0.3,0.6-0.5,1.2-0.5,1.8
		H153V195h25.6L178.5,160.4L178.5,160.4z"/>
	<path class="st12" d="M170.2,148.8h-8.7c-2.1,0-3.9-1.7-3.9-3.9v-3.1c0-2.1,1.7-3.9,3.9-3.9h8.7c2.1,0,3.9,1.7,3.9,3.9v3.1
		C174,147,172.3,148.8,170.2,148.8z"/>
	<rect x="153" y="160.4" class="st12" width="25.6" height="14.8"/>
</g>
<g>
	<path class="st13" d="M94.5,160.4c0-0.6-0.2-1.2-0.5-1.8l-8.9-15.1c-1.5-2.5-5.2-2.5-6.6,0l-8.9,15.1c-0.3,0.6-0.5,1.2-0.5,1.8H69
		V195h25.6L94.5,160.4L94.5,160.4z"/>
	<path class="st14" d="M86.2,148.8h-8.7c-2.1,0-3.9-1.7-3.9-3.9v-3.1c0-2.1,1.7-3.9,3.9-3.9h8.7c2.1,0,3.9,1.7,3.9,3.9v3.1
		C90,147,88.3,148.8,86.2,148.8z"/>
	<rect x="69" y="160.4" class="st14" width="25.6" height="14.8"/>
</g>
<g>
	<g id="XMLID_3_">
		<g>
			<path class="st15" d="M74.9,98.7c0.8,0.7,3.8,1.6,5.6,1.8c0.5,0.1,0.8-0.1,1-0.4c0.2,0.3,0.5,0.5,1,0.4c1.8-0.2,4.8-1.1,5.6-1.8
				c0.5-1.8-2-1.7-2-1.7s-4.5-0.4-4.7,0.2c-0.2-0.6-4.7-0.2-4.7-0.2S74.4,96.9,74.9,98.7z M102.2,98.9c0,0,4.6,0.5,4.5,3.4
				c-0.1,2.3,1.5,11.3-25,11.3c0,0,0,0-0.1,0c-26.5,0-24.9-9-25-11.3c-0.1-2.9,4.5-3.4,4.5-3.4s0-0.1,2.9-0.3
				C67,98.4,65.2,94,65.2,88c0-6,0.8-8.5,3.4-10.1c2.1-1.3,6.3-2.4,8-2.8c-0.6,3.2-0.4,9.6,0,14c0.4,4.3,5,4.2,5,4.2s4.6,0.1,5-4.2
				c0.4-4.3,0.6-10.8,0-14c1.7,0.4,5.9,1.5,8,2.8c2.6,1.6,3.4,4.1,3.4,10.1c0,6-1.8,10.5,1.1,10.6c0.7,0,1.3,0.1,1.7,0.1
				c0,0,0,0,0,0C102.2,98.8,102.2,98.9,102.2,98.9z"/>
			<path class="st16" d="M91.7,57.4c0.3,0,0.5,0.2,0.5,0.5c0,0.3-0.2,0.5-0.5,0.5c-0.3,0-0.5-0.2-0.5-0.5
				C91.2,57.7,91.4,57.4,91.7,57.4z"/>
			<path class="st16" d="M91.6,58.4c0.3,0,0.5,0.2,0.5,0.5c0,0.3-0.2,0.5-0.5,0.5S91,59.2,91,58.9C91,58.6,91.3,58.4,91.6,58.4z"/>
			<path class="st16" d="M91.4,59.5c0.3,0,0.5,0.2,0.5,0.5c0,0.3-0.2,0.5-0.5,0.5c-0.3,0-0.5-0.2-0.5-0.5
				C90.9,59.7,91.1,59.5,91.4,59.5z"/>
			<path class="st16" d="M91.3,56.5c0.3,0,0.5,0.2,0.5,0.5c0,0.3-0.2,0.5-0.5,0.5c-0.3,0-0.5-0.2-0.5-0.5
				C90.8,56.7,91,56.5,91.3,56.5z"/>
			<path class="st16" d="M91.2,60.5c0.3,0,0.5,0.2,0.5,0.5c0,0.3-0.2,0.5-0.5,0.5c-0.3,0-0.5-0.2-0.5-0.5
				C90.7,60.8,90.9,60.5,91.2,60.5z"/>
			<path class="st16" d="M91.2,61.8c0.3,0,0.6,0.3,0.6,0.6s-0.3,0.6-0.6,0.6c0,0,0,0,0,0c-0.2,0-0.4-0.1-0.5-0.3c0-0.1,0-0.2,0-0.2
				c0-0.1,0-0.2,0-0.3C90.7,62,90.9,61.8,91.2,61.8z"/>
			<path class="st17" d="M91.1,55c0.3,0,0.5,0.2,0.5,0.5c0,0.3-0.2,0.5-0.5,0.5c0,0-0.1,0-0.1,0c-0.1-0.1-0.1-0.1-0.2-0.1
				c-0.1-0.1-0.1-0.2-0.1-0.3C90.6,55.2,90.8,55,91.1,55z"/>
			<path class="st18" d="M91.2,63.1L91.2,63.1c0,0-0.2,1.4,0,4.1c0.3,4.8-0.3,8.5-1.7,4.2c1.2-2.4,1.3-5.4,1.2-8.6
				C90.7,62.9,90.9,63.1,91.2,63.1z"/>
			<path class="st16" d="M91,55.9c0.1,0.1,0.1,0.2,0.1,0.3c0,0.3-0.2,0.5-0.5,0.5c-0.3,0-0.5-0.2-0.5-0.5c0-0.3,0.2-0.5,0.5-0.5
				c0,0,0.1,0,0.1,0C90.8,55.9,90.9,55.9,91,55.9z"/>
			<path class="st18" d="M89.4,71.3c-0.1,0.3-0.3,0.6-0.5,0.9c-0.6,1-1.8,1.7-3.1,2.2c-2.1,0.8-4.4,1-4.4,1s-2.1-0.2-4.1-0.9
				c-1.4-0.5-2.7-1.2-3.4-2.3c-0.2-0.3-0.3-0.6-0.5-0.9c-1.1-2.4-1.3-5.2-1.2-8.2c0.3,0,0.6-0.3,0.6-0.6c0-0.3-0.3-0.6-0.6-0.6
				c0-0.1,0-0.2,0-0.2c0.2,0,0.4-0.3,0.4-0.5c0-0.3-0.2-0.5-0.5-0.5c0,0,0,0,0-0.1c0.2-0.1,0.3-0.3,0.3-0.5c0-0.2-0.1-0.4-0.3-0.5
				c0,0,0-0.1,0-0.1c0.1-0.1,0.2-0.3,0.2-0.4c0-0.2-0.1-0.3-0.2-0.4c0-0.2,0-0.3,0.1-0.5c0-0.3,0.1-0.5,0.2-0.7c0,0,0.1-0.1,0.1-0.2
				c0.1-0.2,0.2-0.3,0.4-0.5c0,0,0.1-0.1,0.1-0.1c0.2-0.1,0.3-0.2,0.6-0.3c0,0,0,0,0.1,0c0.1,0,0.2-0.1,0.3-0.1
				c0.1,0,0.2-0.1,0.3-0.1c0.1,0.1,0.2,0.1,0.4,0.1c0.2,0,0.4-0.1,0.5-0.3c0.1,0,0.3,0,0.4,0c0.1,0.1,0.2,0.1,0.4,0.1
				c0.1,0,0.3,0,0.4-0.1c0,0,0.1,0,0.1,0c3.2,0,3.8,0,4.9,0c1.1,0,1.7,0,4.9,0c0.2,0,0.5,0,0.7,0c0.1,0.1,0.2,0.1,0.4,0.1
				c0.1,0,0.2,0,0.3-0.1c0.2,0,0.3,0,0.5,0c0.1,0.1,0.3,0.2,0.5,0.2c0.1,0,0.2,0,0.3-0.1c0.2,0,0.4,0.1,0.5,0.2c2.5,0.9,1,3.2,1,5.9
				c0,0.1-0.1,0.2-0.1,0.3c0,0.1,0,0.2,0.1,0.3C90.7,65.9,90.5,68.9,89.4,71.3z M88.4,62.1c0,0-2.9,0.4-3.9,0.3
				c-1-0.1-1.2,0.7-1.2,0.7S86.5,63.4,88.4,62.1z M84.2,70.5c0.9,0.5,0.9-0.9,0.9-0.9c-0.6,0.3-0.6-0.4-1.5-0.9
				c-0.6-0.4-1.4,0.1-1.8,0.3c-0.1,0.1-0.2,0.1-0.3,0c-0.3-0.2-1.1-0.7-1.8-0.3c-0.9,0.5-0.9,1.1-1.5,0.9c0,0,0,1.4,0.9,0.9
				c0,0,0,0,0.1,0c0.1,0,0.7,0.3,1.8-0.1C82.2,69.9,82.9,70.8,84.2,70.5z M82.6,57.5c0-0.5-0.4-0.9-0.9-0.9c-0.5,0-0.9,0.4-0.9,0.9
				s0.4,0.9,0.9,0.9C82.2,58.4,82.6,58,82.6,57.5z M74.8,62.1c1.9,1.3,5.1,1,5.1,1s-0.3-0.8-1.2-0.7C77.8,62.5,74.8,62.1,74.8,62.1z
				"/>
			<path class="st19" d="M90.6,62.5c0,0.1,0,0.2,0,0.2C90.6,62.7,90.5,62.6,90.6,62.5c-0.1-0.1,0-0.2,0-0.3
				C90.6,62.3,90.6,62.4,90.6,62.5z"/>
			<path class="st17" d="M90.5,54.5c0.1,0.1,0.2,0.2,0.2,0.4c0,0.3-0.2,0.5-0.5,0.5s-0.5-0.2-0.5-0.5c0-0.1,0.1-0.2,0.1-0.3
				c0.1,0,0.2,0.1,0.3,0.1C90.3,54.6,90.4,54.6,90.5,54.5z"/>
			<path class="st20" d="M90.1,53.7c0.3,0,0.5,0.2,0.5,0.5c0,0.1-0.1,0.2-0.1,0.3c-0.1,0-0.2-0.1-0.3-0.1c-0.1,0-0.2,0.1-0.3,0.1
				c-0.1-0.1-0.2-0.2-0.2-0.4C89.7,53.9,89.9,53.7,90.1,53.7z"/>
			<path class="st16" d="M89.7,55.4c0.3,0,0.5,0.2,0.5,0.5c0,0.3-0.2,0.5-0.5,0.5c-0.1,0-0.1,0-0.2,0c-0.2-0.1-0.3-0.2-0.3-0.4
				c0-0.1,0.1-0.2,0.1-0.3c0,0,0,0,0,0C89.4,55.4,89.5,55.4,89.7,55.4z"/>
			<path class="st20" d="M89.4,53.1c0.3,0,0.5,0.2,0.5,0.5c0,0.3-0.2,0.5-0.5,0.5c-0.3,0-0.5-0.2-0.5-0.5
				C88.9,53.3,89.1,53.1,89.4,53.1z"/>
			<path class="st17" d="M89.1,54.1c0.3,0,0.5,0.2,0.5,0.5c0,0.3-0.2,0.5-0.5,0.5s-0.5-0.2-0.5-0.5C88.7,54.3,88.9,54.1,89.1,54.1z"
				/>
			<path class="st16" d="M89.3,55.6c0,0.1-0.1,0.2-0.1,0.2c0,0,0,0,0,0.1c0,0.1-0.1,0.2-0.2,0.2c-0.2-0.1-0.5-0.1-0.8-0.1
				c-0.1-0.1-0.1-0.2-0.1-0.4c0,0,0-0.1,0-0.1c0.1-0.3,0.3-0.5,0.6-0.5C89,55,89.3,55.2,89.3,55.6z"/>
			<path class="st20" d="M88.4,52.5c0.3,0,0.5,0.2,0.5,0.5c0,0.2-0.2,0.4-0.4,0.5c-0.1-0.1-0.3-0.2-0.5-0.2c0-0.1-0.1-0.2-0.1-0.3
				c0-0.1,0.1-0.2,0.1-0.3c0,0,0,0,0,0C88.2,52.7,88.3,52.6,88.4,52.5C88.4,52.5,88.4,52.5,88.4,52.5z"/>
			<path class="st19" d="M89,56.1c-0.1,0.1-0.2,0.1-0.3,0.1c-0.2,0-0.4-0.1-0.5-0.2C88.5,56,88.8,56.1,89,56.1z"/>
			<path class="st17" d="M88.5,53.5c0.1,0.1,0.2,0.3,0.2,0.5c0,0.4-0.3,0.7-0.7,0.7c-0.4,0-0.7-0.3-0.7-0.7c0,0,0-0.1,0-0.1
				c0.1-0.3,0.3-0.6,0.7-0.6c0,0,0,0,0,0C88.1,53.4,88.3,53.5,88.5,53.5C88.4,53.5,88.5,53.5,88.5,53.5z"/>
			<path class="st20" d="M88.5,52.4c0,0.1,0,0.1-0.1,0.2c-0.1,0-0.2,0.1-0.3,0.1c-0.2,0-0.3-0.2-0.3-0.3c0,0,0-0.1,0-0.1
				c0.1,0,0.1-0.1,0.1-0.2c0,0,0.1,0,0.2,0C88.3,52,88.5,52.2,88.5,52.4z"/>
			<path class="st18" d="M81.6,97.8c0,0-0.1-0.1-0.1-0.1c0.1-0.1,0.1-0.3,0-0.5c0.2-0.6,4.7-0.2,4.7-0.2s2.5-0.1,2,1.7
				c-0.8,0.7-3.8,1.6-5.6,1.8c-0.5,0.1-0.8-0.1-1-0.4C82,99.3,81.7,98,81.6,97.8z"/>
			<path class="st16" d="M88.1,55.3c0,0,0,0.1,0,0.1c0,0.2-0.2,0.4-0.4,0.5c-0.2,0-0.5,0-0.7,0c-0.2-0.1-0.3-0.3-0.3-0.6
				c0-0.4,0.3-0.7,0.7-0.7S88.1,54.9,88.1,55.3z"/>
			<path class="st20" d="M88,51.9c0,0.1,0,0.2-0.1,0.2c-0.1,0-0.1,0.1-0.1,0.2c-0.1,0.1-0.2,0.1-0.3,0.1c0,0-0.1,0-0.1,0
				c-0.2-0.1-0.3-0.2-0.3-0.5c0-0.3,0.2-0.5,0.5-0.5S88,51.6,88,51.9z"/>
			<path class="st20" d="M87.4,52.3c0.2,0,0.4,0.2,0.4,0.5c0,0.3-0.2,0.5-0.5,0.5c-0.1,0-0.2,0-0.3-0.1c-0.1-0.1-0.2-0.2-0.2-0.4
				C86.9,52.5,87.1,52.3,87.4,52.3C87.4,52.3,87.4,52.3,87.4,52.3z"/>
			<path class="st19" d="M87.7,55.9c-0.1,0-0.2,0.1-0.3,0.1c-0.1,0-0.3,0-0.4-0.1C87.3,55.9,87.5,55.9,87.7,55.9z"/>
			<path class="st17" d="M87.3,53.7c0,0,0,0.1,0,0.1c-0.1,0.3-0.3,0.6-0.7,0.6c-0.4,0-0.7-0.3-0.7-0.7s0.3-0.7,0.7-0.7
				c0.1,0,0.3,0,0.4,0.1C87.2,53.3,87.3,53.5,87.3,53.7z"/>
			<path d="M84.6,62.5c1,0.1,3.9-0.3,3.9-0.3c-1.9,1.3-5.1,1-5.1,1S83.6,62.4,84.6,62.5z"/>
			<path class="st20" d="M86.7,50.9c0.3,0,0.5,0.2,0.5,0.5c0,0.3-0.2,0.5-0.5,0.5c-0.3,0-0.5-0.2-0.5-0.5
				C86.2,51.1,86.4,50.9,86.7,50.9z"/>
			<circle class="st16" cx="86" cy="55.1" r="0.7"/>
			<path class="st19" d="M86.5,75.1c0.6,3.2,0.4,9.6,0,14c-0.4,4.3-5,4.2-5,4.2s-4.6,0.1-5-4.2c-0.4-4.3-0.6-10.8,0-14
				c0.4-0.1,0.7-0.2,0.7-0.2v-0.4l0,0c2,0.7,4.1,0.9,4.1,0.9s2.3-0.2,4.4-1l0,0v0.5C85.8,74.9,86.1,75,86.5,75.1z"/>
			<path class="st20" d="M86.2,52.1c0.3,0,0.5,0.2,0.5,0.5c0,0.3-0.2,0.5-0.5,0.5c-0.3,0-0.5-0.2-0.5-0.5
				C85.7,52.3,85.9,52.1,86.2,52.1z"/>
			<path class="st20" d="M85.8,50.4c0.3,0,0.5,0.2,0.5,0.5c0,0.2-0.2,0.4-0.4,0.5c-0.1,0-0.2-0.1-0.2-0.1c0,0-0.1,0-0.1,0
				c-0.1-0.1-0.2-0.2-0.2-0.4C85.4,50.6,85.6,50.4,85.8,50.4z"/>
			<path class="st20" d="M85.9,51.3c0.1,0.1,0.2,0.2,0.2,0.4c0,0.3-0.2,0.5-0.5,0.5c-0.3,0-0.5-0.2-0.5-0.5c0-0.2,0.2-0.4,0.4-0.5
				C85.7,51.3,85.7,51.3,85.9,51.3C85.9,51.3,85.9,51.3,85.9,51.3z"/>
			<circle class="st17" cx="85.2" cy="53.7" r="0.7"/>
			<path class="st20" d="M85,52c0.3,0,0.5,0.2,0.5,0.5c0,0.3-0.2,0.5-0.5,0.5c-0.3,0-0.5-0.2-0.5-0.5C84.5,52.2,84.7,52,85,52z"/>
			<circle class="st16" cx="84.7" cy="55.1" r="0.7"/>
			<path class="st21" d="M84.2,70.5C84.2,70.5,84.2,70.5,84.2,70.5c-0.9-0.6-1-1.1-1.6-1s-0.6,0.3-0.9,0.3c-0.3,0-0.4-0.2-0.9-0.3
				c-0.6-0.1-0.6,0.4-1.5,1c0,0,0,0-0.1,0c-0.9,0.6-0.9-0.9-0.9-0.9c0.6,0.3,0.6-0.4,1.5-0.9c0.6-0.4,1.4,0.1,1.8,0.3
				c0.1,0.1,0.2,0.1,0.3,0c0.3-0.2,1.1-0.7,1.8-0.3c0.9,0.5,0.9,1.1,1.5,0.9C85.1,69.7,85.1,71.1,84.2,70.5z"/>
			<path class="st20" d="M84.7,51c0.3,0,0.5,0.2,0.5,0.5c0,0.3-0.2,0.5-0.5,0.5s-0.5-0.2-0.5-0.5C84.2,51.2,84.4,51,84.7,51z"/>
			<path class="st20" d="M84.7,49.8c0.3,0,0.5,0.2,0.5,0.5c0,0.3-0.2,0.5-0.5,0.5c-0.3,0-0.5-0.2-0.5-0.5
				C84.2,50,84.4,49.8,84.7,49.8z"/>
			<ellipse class="st17" cx="83.9" cy="53.7" rx="0.7" ry="0.7"/>
			<path class="st21" d="M84.2,70.5C84.2,70.5,84.2,70.5,84.2,70.5c-1.2,0.3-1.9-0.6-3.1-0.1c-1.1,0.4-1.8,0.1-1.8,0.1
				c0.9-0.6,0.9-1,1.5-1c0.6,0.1,0.6,0.3,0.9,0.3c0.3,0,0.4-0.2,0.9-0.3C83.2,69.4,83.2,69.9,84.2,70.5z"/>
			<path class="st20" d="M83.7,50.8c0.3,0,0.5,0.2,0.5,0.5c0,0.3-0.2,0.5-0.5,0.5c-0.3,0-0.5-0.2-0.5-0.5v0c0-0.1,0.1-0.1,0.1-0.2
				c0,0,0,0,0,0C83.4,50.9,83.6,50.8,83.7,50.8z"/>
			<path class="st20" d="M83.6,52.1c0.3,0,0.5,0.2,0.5,0.5c0,0.3-0.2,0.5-0.5,0.5s-0.5-0.2-0.5-0.5C83.2,52.3,83.4,52.1,83.6,52.1z"
				/>
			<path class="st20" d="M83.5,49.4c0.3,0,0.5,0.2,0.5,0.5c0,0.3-0.2,0.5-0.5,0.5S83,50.2,83,49.9C83,49.7,83.2,49.4,83.5,49.4z"/>
			<ellipse class="st16" cx="83.3" cy="55.1" rx="0.7" ry="0.7"/>
			<path class="st20" d="M83.3,51c0,0.1-0.1,0.2-0.1,0.2c-0.2,0.3-0.8,0.5-1.6,0.5c-0.8,0-1.4-0.2-1.6-0.6c0,0,0-0.1,0-0.1
				c0,0,0-0.1,0-0.1c0-0.4,0.7-0.8,1.7-0.8C82.6,50.3,83.3,50.6,83.3,51z"/>
			<circle class="st17" cx="82.5" cy="53.7" r="0.7"/>
			<path class="st20" d="M82.3,52.1c0.3,0,0.5,0.2,0.5,0.5c0,0.3-0.2,0.5-0.5,0.5c-0.3,0-0.5-0.2-0.5-0.5
				C81.8,52.3,82,52.1,82.3,52.1z"/>
			<path class="st20" d="M82.3,49.2c0.3,0,0.5,0.2,0.5,0.5c0,0.3-0.2,0.5-0.5,0.5s-0.5-0.2-0.5-0.5C81.8,49.5,82,49.2,82.3,49.2z"/>
			<circle class="st22" cx="81.7" cy="57.5" r="0.9"/>
			<circle class="st16" cx="81.7" cy="55.1" r="0.7"/>
			<path class="st18" d="M81.5,97.8c0,0.2-0.3,1.5,0.1,2.2c-0.2,0.3-0.5,0.5-1,0.4c-1.8-0.2-4.8-1.1-5.6-1.8c-0.5-1.8,2-1.7,2-1.7
				s4.5-0.4,4.7,0.2c-0.1,0.2-0.1,0.4,0,0.5C81.5,97.8,81.5,97.8,81.5,97.8z"/>
			<path class="st20" d="M81,52.1c0.3,0,0.5,0.2,0.5,0.5c0,0.3-0.2,0.5-0.5,0.5s-0.5-0.2-0.5-0.5C80.5,52.3,80.8,52.1,81,52.1z"/>
			<path class="st17" d="M80.8,53c0.4,0,0.7,0.3,0.7,0.7s-0.3,0.7-0.7,0.7s-0.7-0.3-0.7-0.7S80.5,53,80.8,53z"/>
			<path class="st20" d="M80.9,49.2c0.3,0,0.5,0.2,0.5,0.5c0,0.3-0.2,0.5-0.5,0.5c-0.3,0-0.5-0.2-0.5-0.5
				C80.5,49.5,80.7,49.2,80.9,49.2z"/>
			<ellipse class="st16" cx="80" cy="55.1" rx="0.7" ry="0.7"/>
			<path class="st20" d="M80.1,51.3c0,0,0,0.1,0,0.1c0,0.3-0.2,0.5-0.5,0.5c-0.3,0-0.5-0.2-0.5-0.5c0-0.3,0.2-0.5,0.5-0.5
				c0.2,0,0.3,0.1,0.4,0.2C80,51.2,80,51.2,80.1,51.3z"/>
			<path class="st20" d="M79.7,49.6c0.3,0,0.5,0.2,0.5,0.5c0,0.3-0.2,0.5-0.5,0.5s-0.5-0.2-0.5-0.5C79.2,49.8,79.5,49.6,79.7,49.6z"
				/>
			<path class="st20" d="M79.7,52.1c0.3,0,0.5,0.2,0.5,0.5c0,0.3-0.2,0.5-0.5,0.5c-0.3,0-0.5-0.2-0.5-0.5
				C79.2,52.3,79.4,52.1,79.7,52.1z"/>
			<ellipse class="st17" cx="79.5" cy="53.7" rx="0.7" ry="0.7"/>
			<path d="M80,63.2c0,0-3.2,0.3-5.1-1c0,0,2.9,0.4,3.9,0.3C79.7,62.4,80,63.2,80,63.2z"/>
			<circle class="st16" cx="78.7" cy="55.1" r="0.7"/>
			<path class="st20" d="M78.7,51c0.3,0,0.5,0.2,0.5,0.5c0,0.3-0.2,0.5-0.5,0.5c-0.3,0-0.5-0.2-0.5-0.5C78.2,51.2,78.4,51,78.7,51z"
				/>
			<path class="st20" d="M78.6,49.9c0.3,0,0.5,0.2,0.5,0.5c0,0.3-0.2,0.5-0.5,0.5c-0.3,0-0.5-0.2-0.5-0.5
				C78.1,50.1,78.3,49.9,78.6,49.9z"/>
			<path class="st20" d="M78.4,52c0.3,0,0.5,0.2,0.5,0.5c0,0.3-0.2,0.5-0.5,0.5s-0.5-0.2-0.5-0.5C77.9,52.2,78.1,52,78.4,52z"/>
			<circle class="st17" cx="78.1" cy="53.7" r="0.7"/>
			<path class="st20" d="M77.8,51.2c0.2,0,0.4,0.2,0.4,0.5c0,0.3-0.2,0.5-0.5,0.5s-0.5-0.2-0.5-0.5c0-0.2,0.1-0.3,0.2-0.4
				c0,0,0.1,0,0.1,0C77.6,51.3,77.7,51.3,77.8,51.2z"/>
			<path class="st20" d="M77.5,50.4c0.3,0,0.5,0.2,0.5,0.5c0,0.2-0.1,0.3-0.2,0.4c0,0-0.1,0-0.1,0c-0.1,0-0.2,0-0.2,0.1
				c-0.2,0-0.4-0.2-0.4-0.5C77.1,50.6,77.3,50.4,77.5,50.4z"/>
			<circle class="st16" cx="77.3" cy="55.1" r="0.7"/>
			<path class="st20" d="M77.2,52.1c0.3,0,0.5,0.2,0.5,0.5c0,0.3-0.2,0.5-0.5,0.5c-0.3,0-0.5-0.2-0.5-0.5
				C76.7,52.3,76.9,52.1,77.2,52.1z"/>
			<path class="st17" d="M76.7,53c0.4,0,0.7,0.3,0.7,0.7s-0.3,0.7-0.7,0.7c-0.3,0-0.6-0.3-0.7-0.6c0,0,0-0.1,0-0.1
				c0-0.2,0.1-0.4,0.3-0.5C76.4,53.1,76.6,53,76.7,53z"/>
			<path class="st20" d="M76.7,50.9c0.3,0,0.5,0.2,0.5,0.5c0,0.3-0.2,0.5-0.5,0.5c-0.3,0-0.5-0.2-0.5-0.5
				C76.2,51.1,76.4,50.9,76.7,50.9z"/>
			<path class="st16" d="M75.9,54.6c0.4,0,0.7,0.3,0.7,0.7c0,0.2-0.1,0.4-0.3,0.6c-0.3,0-0.5,0-0.8,0c-0.2-0.1-0.3-0.3-0.3-0.4
				c0,0,0-0.1,0-0.1C75.3,54.9,75.6,54.6,75.9,54.6z"/>
			<path class="st20" d="M76,52.3c0.3,0,0.5,0.2,0.5,0.5c0,0.2-0.1,0.3-0.2,0.4c-0.1,0.1-0.2,0.1-0.3,0.1c-0.3,0-0.5-0.2-0.5-0.5
				c0-0.2,0.1-0.4,0.3-0.5C75.9,52.3,76,52.3,76,52.3z"/>
			<path class="st20" d="M75.8,51.4c0.3,0,0.5,0.2,0.5,0.5c0,0.2-0.2,0.4-0.4,0.5c0,0-0.1,0-0.1,0c-0.1,0-0.2,0-0.3-0.1
				c0-0.1-0.1-0.1-0.1-0.2c0-0.1-0.1-0.1-0.1-0.2C75.3,51.6,75.5,51.4,75.8,51.4z"/>
			<path class="st17" d="M76,53.8c0,0,0,0.1,0,0.1c0,0.4-0.3,0.7-0.7,0.7s-0.7-0.3-0.7-0.7c0-0.2,0.1-0.3,0.2-0.5c0,0,0,0,0.1,0
				c0.2,0,0.3-0.1,0.4-0.2c0,0,0,0,0,0C75.7,53.3,76,53.5,76,53.8z"/>
			<path class="st19" d="M76.3,55.9C76.2,56,76.1,56,75.9,56c-0.1,0-0.3,0-0.4-0.1C75.8,55.9,76.1,55.9,76.3,55.9z"/>
			<path class="st20" d="M75.5,52.2c0,0,0,0.1,0,0.1c0,0.2-0.1,0.3-0.3,0.3c-0.1-0.1-0.2-0.1-0.3-0.1c0-0.1-0.1-0.1-0.1-0.2
				c0-0.2,0.1-0.3,0.3-0.3c0.1,0,0.1,0,0.2,0C75.4,52.1,75.5,52.2,75.5,52.2z"/>
			<path class="st20" d="M75.4,53c0,0.1,0,0.2-0.1,0.3c-0.2,0-0.3,0.1-0.5,0.2c-0.2,0-0.4-0.2-0.4-0.5c0-0.3,0.2-0.5,0.5-0.5
				c0,0,0,0,0,0c0.1,0.1,0.2,0.1,0.3,0.1c0,0,0,0,0,0C75.3,52.8,75.4,52.9,75.4,53z"/>
			<path class="st16" d="M75.2,55.5c0,0,0,0.1,0,0.1c0,0.1,0,0.2-0.1,0.3c-0.3,0-0.6,0.1-0.9,0.1c-0.1-0.1-0.1-0.1-0.2-0.2
				c0,0,0,0,0-0.1c0-0.1,0-0.2-0.1-0.2c0-0.3,0.3-0.6,0.6-0.6C74.9,55,75.2,55.2,75.2,55.5z"/>
			<path class="st19" d="M75.2,55.9c-0.1,0.2-0.3,0.3-0.5,0.3c-0.1,0-0.3-0.1-0.4-0.1C74.5,56,74.8,56,75.2,55.9z"/>
			<path class="st17" d="M74.2,54.1c0.3,0,0.5,0.2,0.5,0.5c0,0.3-0.2,0.5-0.5,0.5s-0.5-0.2-0.5-0.5C73.7,54.3,73.9,54.1,74.2,54.1z"
				/>
			<path class="st20" d="M74,53.1c0.3,0,0.5,0.2,0.5,0.5c0,0.3-0.2,0.5-0.5,0.5c-0.3,0-0.5-0.2-0.5-0.5C73.5,53.3,73.7,53.1,74,53.1
				z"/>
			<path class="st16" d="M74,55.6C74,55.6,74,55.6,74,55.6c0,0.1,0,0.2,0.1,0.3c0,0.1-0.1,0.2-0.1,0.3c-0.1,0-0.3,0.1-0.4,0.1
				c-0.2,0-0.4-0.2-0.4-0.5c0-0.3,0.2-0.5,0.5-0.5C73.8,55.4,73.9,55.4,74,55.6z"/>
			<path class="st19" d="M74,56.2c-0.1,0.1-0.2,0.1-0.3,0.1c0,0,0,0-0.1,0C73.7,56.2,73.8,56.2,74,56.2z"/>
			<path class="st20" d="M73.2,53.7c0.3,0,0.5,0.2,0.5,0.5c0,0.2-0.1,0.3-0.2,0.4c-0.1-0.1-0.2-0.1-0.3-0.1c-0.1,0-0.2,0-0.3,0.1
				c-0.1-0.1-0.1-0.2-0.1-0.3C72.7,53.9,72.9,53.7,73.2,53.7z"/>
			<path class="st17" d="M73.5,54.6c0.1,0.1,0.1,0.2,0.1,0.3c0,0.3-0.2,0.5-0.5,0.5c-0.3,0-0.5-0.2-0.5-0.5c0-0.2,0.1-0.3,0.2-0.4
				c0.1,0.1,0.2,0.1,0.3,0.1C73.3,54.6,73.4,54.6,73.5,54.6z"/>
			<path class="st18" d="M73.4,71.3L73.4,71.3c-1.5,4.3-2.1,0.7-1.8-4.2c0.2-2.7,0.2-4.2,0.2-4.2l0,0c0.1,0.1,0.2,0.1,0.3,0.1
				c0,0,0,0,0,0C72.1,66.1,72.3,69,73.4,71.3z"/>
			<path class="st16" d="M72.7,55.8c0.3,0,0.5,0.2,0.5,0.5c0,0.1-0.1,0.2-0.1,0.3c0,0-0.1,0.1-0.1,0.1c-0.1,0-0.1,0.1-0.2,0.1
				c-0.1,0-0.2-0.1-0.3-0.1c-0.1-0.1-0.1-0.2-0.1-0.3c0-0.1,0.1-0.3,0.1-0.3c0.1,0,0.2-0.1,0.2-0.1C72.6,55.8,72.7,55.8,72.7,55.8z"
				/>
			<path class="st19" d="M73,56.6c0,0-0.1,0.1-0.1,0.1C72.9,56.6,73,56.6,73,56.6z"/>
			<path class="st16" d="M72.2,61.8c0.3,0,0.6,0.3,0.6,0.6c0,0.3-0.3,0.6-0.6,0.6c0-0.2,0-0.4,0-0.6C72.2,62.3,72.2,62.1,72.2,61.8z
				"/>
			<path class="st17" d="M72.3,55c0.3,0,0.5,0.2,0.5,0.5c0,0.1-0.1,0.3-0.1,0.3c-0.1,0-0.2,0.1-0.2,0.1c0,0-0.1,0-0.1,0
				c-0.3,0-0.5-0.2-0.5-0.5C71.8,55.2,72,55,72.3,55z"/>
			<path class="st16" d="M72.2,60.5c0.3,0,0.5,0.3,0.5,0.5c0,0.3-0.2,0.5-0.4,0.5C72.2,61.2,72.2,60.9,72.2,60.5z"/>
			<path class="st16" d="M72.5,57c0,0.1,0,0.1,0,0.2c0,0.1-0.1,0.1-0.1,0.2c-0.1,0.1-0.2,0.2-0.3,0.2c-0.3,0-0.5-0.2-0.5-0.5
				c0-0.3,0.2-0.5,0.5-0.5c0.1,0,0.2,0,0.3,0.1C72.4,56.7,72.5,56.8,72.5,57z"/>
			<path class="st19" d="M72.5,57.1c0,0.1-0.1,0.1-0.1,0.2C72.4,57.2,72.5,57.2,72.5,57.1z"/>
			<path class="st19" d="M72.1,59.5c0.2,0.1,0.3,0.3,0.3,0.5c0,0.2-0.1,0.4-0.3,0.5C72.1,60.1,72.1,59.8,72.1,59.5z"/>
			<path class="st16" d="M72.2,61.8c0,0.2,0,0.4,0,0.7c0,0.2,0,0.4,0,0.6c0,0,0,0,0,0c-0.1,0-0.2,0-0.3-0.1
				c-0.2-0.1-0.3-0.3-0.3-0.5C71.6,62.1,71.8,61.8,72.2,61.8C72.2,61.8,72.2,61.8,72.2,61.8z"/>
			<path class="st16" d="M72.2,60.5c0,0.3,0,0.7,0.1,1.1c0,0-0.1,0-0.1,0c-0.3,0-0.5-0.2-0.5-0.5C71.6,60.8,71.8,60.5,72.2,60.5
				C72.1,60.5,72.1,60.5,72.2,60.5z"/>
			<path class="st19" d="M72.1,58.5c0.1,0.1,0.2,0.3,0.2,0.4c0,0.2-0.1,0.3-0.2,0.4C72.1,59.1,72.1,58.8,72.1,58.5z"/>
			<path class="st16" d="M72.2,57.9C72.2,57.9,72.2,58,72.2,57.9c0,0.3-0.2,0.5-0.4,0.5c0,0,0,0,0,0c-0.3,0-0.5-0.2-0.5-0.5
				c0-0.3,0.2-0.5,0.5-0.5C71.9,57.4,72.2,57.7,72.2,57.9z"/>
			<path class="st16" d="M72.1,59.5c0,0.3,0,0.6,0.1,1c-0.1,0-0.2,0.1-0.3,0.1c-0.3,0-0.5-0.2-0.5-0.5c0-0.3,0.2-0.5,0.5-0.5
				c0,0,0,0,0.1,0C72,59.5,72,59.5,72.1,59.5z"/>
			<path class="st16" d="M72.1,58.5c0,0.3,0,0.6,0,0.9c-0.1,0.1-0.2,0.1-0.3,0.1c0,0,0,0-0.1,0c-0.3,0-0.5-0.2-0.5-0.5
				c0-0.3,0.2-0.5,0.5-0.5c0,0,0,0,0,0C71.9,58.4,72,58.4,72.1,58.5z"/>
		</g>
		<g>
			<path d="M90.5,73.5c-0.3,0-0.6-0.4-0.7-0.5c-0.2-0.3-0.4-0.8-0.7-1.5c0,0,0,0,0,0c0-0.1,0-0.2,0.1-0.3c0.1-0.1,0.3,0,0.3,0.1
				c0,0,0,0,0,0c0.2,0.6,0.4,1.1,0.6,1.4c0.2,0.3,0.3,0.4,0.3,0.4c0,0,0.3-0.2,0.4-1.7c0.1-1.1,0.1-2.5,0-4.1c-0.2-2.7,0-4.1,0-4.1
				c0-0.1,0.1-0.2,0.3-0.2c0.1,0,0.2,0.1,0.2,0.3l0,0c0,0-0.2,1.4,0,4c0.1,1.6,0.1,3.1,0,4.2C91.2,72.7,91,73.4,90.5,73.5
				C90.6,73.5,90.5,73.5,90.5,73.5z"/>
			<path d="M81.7,58.6c-0.6,0-1.1-0.5-1.1-1.1s0.5-1.1,1.1-1.1c0.6,0,1.1,0.5,1.1,1.1S82.3,58.6,81.7,58.6z M81.7,56.9
				c-0.4,0-0.6,0.3-0.6,0.6c0,0.4,0.3,0.6,0.6,0.6s0.6-0.3,0.6-0.6C82.3,57.1,82,56.9,81.7,56.9z"/>
			<path d="M72.3,73.5C72.3,73.5,72.2,73.5,72.3,73.5c-0.5-0.1-0.7-0.7-0.9-2.1c-0.1-1.1-0.1-2.6,0-4.2c0.2-2.6,0.2-4.2,0.2-4.2
				c0-0.1,0.1-0.2,0.2-0.2c0,0,0,0,0,0c0.1,0,0.2,0.1,0.2,0.2c0,0,0,1.5-0.2,4.2c-0.1,1.6-0.1,3,0,4.1c0.1,1.5,0.4,1.7,0.4,1.7
				c0,0,0.1-0.1,0.3-0.4c0.2-0.3,0.4-0.8,0.6-1.4c0-0.1,0.2-0.2,0.3-0.1c0.1,0,0.2,0.2,0.1,0.3c-0.2,0.7-0.5,1.2-0.7,1.5
				C72.9,73.1,72.6,73.5,72.3,73.5z M72.3,73L72.3,73L72.3,73z"/>
			<path d="M80.6,62.5c-0.1,0-0.2-0.1-0.2-0.2l0,0c0,0,0-0.3-0.2-0.7c-0.2-0.5-0.6-0.9-1-1.1c-0.5-0.2-1.1-0.3-1.8-0.2
				c-0.9,0.1-2,0.6-3.2,1.2c-0.1,0.1-0.3,0-0.3-0.1c-0.1-0.1,0-0.3,0.1-0.3c1.3-0.7,2.4-1.1,3.4-1.3c0.8-0.1,1.5,0,2.1,0.3
				c1.3,0.7,1.5,2.1,1.5,2.1C80.8,62.4,80.7,62.5,80.6,62.5C80.6,62.5,80.6,62.5,80.6,62.5z"/>
			<path d="M79.3,63.4c-0.3,0-0.7,0-1.2-0.1c-1.4-0.1-2.5-0.5-3.4-1c-0.1-0.1-0.1-0.2-0.1-0.3c0-0.1,0.1-0.2,0.2-0.1
				c0,0,2.9,0.4,3.8,0.3c0.6,0,1,0.2,1.2,0.4c0.2,0.2,0.3,0.4,0.3,0.5c0,0.1,0,0.1,0,0.2c0,0.1-0.1,0.1-0.2,0.1
				C80,63.4,79.7,63.4,79.3,63.4z M76.2,62.5c1.3,0.4,2.7,0.4,3.3,0.4c-0.1-0.1-0.4-0.3-0.8-0.3C78.2,62.7,77.1,62.6,76.2,62.5z"/>
			<path d="M82.8,62.5C82.8,62.5,82.7,62.5,82.8,62.5c-0.2,0-0.2-0.1-0.2-0.3c0-0.1,0.2-1.5,1.5-2.1c0.6-0.3,1.3-0.4,2.1-0.3
				c1,0.1,2.1,0.6,3.4,1.3c0.1,0.1,0.1,0.2,0.1,0.3c-0.1,0.1-0.2,0.1-0.3,0.1c-1.2-0.7-2.3-1.1-3.2-1.2c-0.7-0.1-1.3,0-1.8,0.2
				c-1.1,0.5-1.3,1.8-1.3,1.8C83,62.4,82.9,62.5,82.8,62.5z"/>
			<path d="M84,63.4c-0.4,0-0.7,0-0.7,0c-0.1,0-0.1,0-0.2-0.1c0-0.1,0-0.1,0-0.2c0,0,0.1-0.3,0.3-0.5c0.2-0.2,0.6-0.4,1.2-0.4
				c0.9,0.1,3.8-0.3,3.8-0.3c0.1,0,0.2,0,0.2,0.1c0,0.1,0,0.2-0.1,0.3c-0.8,0.6-2,0.9-3.4,1C84.7,63.4,84.3,63.4,84,63.4z M83.7,63
				c0.3,0,0.8,0,1.4-0.1c0.6-0.1,1.2-0.2,1.9-0.4c-0.9,0.1-2,0.2-2.5,0.2C84.2,62.7,83.9,62.8,83.7,63z"/>
			<path d="M80,68.4C80,68.4,80,68.4,80,68.4c-0.3,0-0.5-0.1-0.7-0.3c-0.2-0.2-0.3-0.4-0.4-0.8c-0.1-0.8,0.1-1.2,0.3-1.4
				c0.2-0.2,0.4-0.3,0.6-0.3c0-0.5,0.1-1.6,0.4-2.5c0-0.1,0.2-0.2,0.3-0.1c0.1,0,0.2,0.2,0.1,0.3c-0.4,1.1-0.4,2.5-0.4,2.6
				c0,0.1,0,0.1-0.1,0.2c-0.1,0-0.1,0.1-0.2,0.1c-0.1,0-0.3,0-0.5,0.2c-0.2,0.2-0.3,0.5-0.2,1c0.1,0.3,0.2,0.5,0.4,0.6
				c0.1,0,0.1,0,0.2,0c-0.1-0.1-0.2-0.3-0.1-0.4c0-0.1,0.1-0.3,0.4-0.4c0.4-0.1,0.9,0.1,1.3,0.3c0.1,0,0.1,0,0.2,0
				c0.4-0.2,0.9-0.4,1.3-0.3c0.3,0.1,0.4,0.3,0.4,0.4c0,0.1,0,0.3-0.1,0.4c0,0,0.1,0,0.2,0c0.2-0.1,0.3-0.3,0.4-0.6
				c0.1-0.5,0-0.8-0.2-1c-0.2-0.2-0.4-0.2-0.5-0.2c-0.1,0-0.1,0-0.2-0.1s-0.1-0.1-0.1-0.2c0,0,0-1.5-0.4-2.6c0-0.1,0-0.3,0.1-0.3
				c0.1,0,0.3,0,0.3,0.1c0.3,0.9,0.4,2,0.4,2.5c0.2,0,0.4,0.1,0.6,0.3c0.2,0.2,0.4,0.6,0.3,1.4c-0.1,0.3-0.2,0.6-0.4,0.8
				c-0.2,0.1-0.4,0.2-0.6,0.3c-0.3,0-0.6-0.1-0.7-0.3c0-0.1,0-0.3,0.1-0.3c0.1-0.1,0.2-0.1,0.2-0.2c0,0,0,0-0.1,0
				c-0.2-0.1-0.5,0-0.9,0.2c-0.2,0.1-0.4,0.1-0.6,0c-0.4-0.2-0.7-0.3-0.9-0.2c-0.1,0-0.1,0-0.1,0c0,0,0.1,0.1,0.2,0.2
				c0.1,0.1,0.2,0.2,0.1,0.3C80.6,68.3,80.3,68.4,80,68.4z"/>
			<path d="M78.8,70.9c-0.1,0-0.2,0-0.3-0.1c-0.2-0.1-0.3-0.4-0.4-0.7c0-0.2,0-0.4,0-0.4c0-0.1,0-0.2,0.1-0.2c0.1,0,0.1,0,0.2,0
				c0.2,0.1,0.3,0.1,0.5-0.2c0.2-0.2,0.4-0.4,0.8-0.6c0.3-0.2,0.7-0.2,1.2-0.1c0.3,0.1,0.6,0.3,0.8,0.4c0,0,0.1,0,0.1,0
				c0.2-0.1,0.5-0.3,0.8-0.4c0.4-0.1,0.8-0.1,1.2,0.1c0.4,0.2,0.6,0.5,0.8,0.6c0.2,0.3,0.3,0.3,0.5,0.2c0.1,0,0.2,0,0.2,0
				c0.1,0,0.1,0.1,0.1,0.2c0,0,0,0.2,0,0.4c-0.1,0.3-0.2,0.6-0.4,0.7c-0.3,0.2-0.6,0-0.8-0.1c0,0,0,0,0,0c-0.4-0.2-0.7-0.5-0.8-0.7
				c-0.3-0.3-0.4-0.3-0.6-0.3c-0.3,0-0.4,0.1-0.5,0.2C82,70,81.8,70,81.7,70c-0.2,0-0.3-0.1-0.4-0.1c-0.1-0.1-0.3-0.1-0.5-0.2
				c-0.2,0-0.3,0-0.6,0.3c-0.2,0.2-0.4,0.4-0.8,0.6c0,0,0,0,0,0c0,0,0,0,0,0c0,0,0,0,0,0C79.1,70.8,79,70.9,78.8,70.9z M79.2,70.5
				L79.2,70.5L79.2,70.5z M78.5,70c0,0.2,0.1,0.4,0.2,0.4c0.1,0.1,0.2,0,0.3-0.1c0,0,0,0,0,0c0,0,0,0,0,0c0,0,0,0,0,0
				c0.3-0.2,0.5-0.4,0.7-0.6c0.3-0.3,0.5-0.5,0.9-0.4c0.4,0,0.5,0.1,0.7,0.2c0.1,0.1,0.1,0.1,0.2,0.1c0.1,0,0.1,0,0.2-0.1
				c0.1-0.1,0.3-0.2,0.7-0.2c0.4-0.1,0.7,0.2,0.9,0.4c0.2,0.2,0.4,0.4,0.8,0.6c0,0,0,0,0,0c0,0,0,0,0,0c0.1,0.1,0.2,0.1,0.3,0.1
				c0.1-0.1,0.2-0.3,0.2-0.4c0,0,0,0,0,0c-0.3,0-0.5-0.2-0.7-0.4c-0.2-0.2-0.3-0.4-0.7-0.6c-0.5-0.3-1.2,0.1-1.5,0.3
				c-0.2,0.1-0.4,0.1-0.6,0c-0.3-0.2-1-0.6-1.5-0.3c-0.3,0.2-0.5,0.4-0.7,0.6C79,69.8,78.8,70,78.5,70z M84.3,70.3
				C84.3,70.3,84.3,70.3,84.3,70.3C84.3,70.3,84.3,70.3,84.3,70.3z"/>
			<path d="M79.9,70.8c-0.1,0-0.1,0-0.2,0c-0.3,0-0.5-0.1-0.6-0.1c0,0,0,0,0,0C79,70.6,79,70.5,79,70.4c0.1-0.1,0.2-0.2,0.3-0.1
				c0,0,0,0,0,0c0,0,0.6,0.3,1.7-0.1c0.7-0.3,1.2-0.1,1.7,0c0.4,0.1,0.9,0.2,1.4,0.1c0,0,0,0,0,0c0.1,0,0.2,0,0.3,0.1
				c0.1,0.1,0,0.3-0.1,0.3c0,0,0,0-0.1,0c0,0,0,0,0,0c-0.6,0.2-1.2,0-1.6-0.1c-0.5-0.1-0.9-0.2-1.5,0C80.7,70.7,80.3,70.8,79.9,70.8
				z M84.3,70.7C84.3,70.7,84.3,70.7,84.3,70.7C84.3,70.7,84.3,70.7,84.3,70.7z M84.3,70.7C84.3,70.7,84.3,70.7,84.3,70.7
				C84.3,70.7,84.3,70.7,84.3,70.7z M79.3,70.3C79.3,70.3,79.3,70.3,79.3,70.3C79.3,70.3,79.3,70.3,79.3,70.3z M79.3,70.3
				C79.3,70.3,79.3,70.3,79.3,70.3C79.3,70.3,79.3,70.3,79.3,70.3z M79.3,70.3C79.3,70.3,79.3,70.3,79.3,70.3
				C79.3,70.3,79.3,70.3,79.3,70.3z"/>
			<path d="M81.4,75.6L81.4,75.6c-0.1,0-2.1-0.2-4.2-0.9c-1.7-0.6-2.9-1.4-3.5-2.4c-0.2-0.3-0.3-0.6-0.5-0.9
				c-0.5-1.1-0.9-2.4-1.1-3.9c-0.2-1.3-0.2-2.7-0.2-4.4l0,0c0-0.2,0-0.4,0-0.6c0-0.2,0-0.4,0-0.6l0-0.2c0-0.4,0-0.7-0.1-1.1l0-0.1
				c0-0.1,0-0.2,0-0.3c0-0.2,0-0.5,0-0.7l0,0c0,0,0,0,0-0.1c0,0,0,0,0-0.1c0-0.3,0-0.6,0-0.9c0-0.2,0-0.4,0.1-0.5
				c0.1-0.3,0.1-0.6,0.3-0.8c0-0.1,0.1-0.1,0.1-0.2c0.1-0.2,0.3-0.4,0.5-0.5c0,0,0.1-0.1,0.1-0.1c0.2-0.1,0.4-0.2,0.6-0.3
				c0.1,0,0.2-0.1,0.4-0.1c0.1,0,0.2-0.1,0.3-0.1c0.3-0.1,0.6-0.1,0.9-0.1c0.1,0,0.3,0,0.4,0c0.2,0,0.5,0,0.8,0h10
				c0.3,0,0.5,0,0.7,0c0.2,0,0.5,0,0.7,0c0.2,0,0.4,0,0.5,0.1c0.3,0,0.6,0.1,0.9,0.1c0.2,0,0.4,0.1,0.5,0.2c0.5,0.2,0.8,0.4,1.1,0.7
				c0.2,0.3,0.4,0.6,0.5,0.9c0.1,0.7,0,1.4-0.1,2.3c-0.1,0.7-0.2,1.4-0.2,2.2c0,0.1,0,0.2,0,0.3l0,0.2c0.1,1.8,0,3.3-0.1,4.6
				c-0.2,1.6-0.6,2.9-1.1,4.1c-0.1,0.3-0.3,0.6-0.5,0.9c-0.6,0.9-1.7,1.7-3.2,2.3C83.8,75.4,81.5,75.6,81.4,75.6L81.4,75.6z
				 M72.3,59.5c0,0.2,0,0.4,0,0.7c0,0.1,0,0.2,0,0.3l0,0.1c0,0.3,0,0.7,0.1,1.1l0,0.2c0,0.2,0,0.5,0,0.7c0,0.2,0,0.4,0,0.6l0,0
				c-0.1,1.7,0,3.1,0.2,4.3c0.2,1.5,0.5,2.7,1,3.8c0.1,0.3,0.3,0.6,0.5,0.9c0.5,0.9,1.6,1.6,3.3,2.2c1.9,0.6,3.8,0.8,4,0.9
				c0.2,0,2.3-0.2,4.3-1c1.5-0.6,2.5-1.3,3-2.1c0.2-0.3,0.3-0.6,0.5-0.9c0.5-1.1,0.9-2.4,1.1-3.9c0.2-1.3,0.2-2.7,0.1-4.5l0-0.2
				c0-0.1,0-0.2,0-0.3c0-0.8,0.1-1.6,0.2-2.3c0.1-0.8,0.2-1.6,0.1-2.2c-0.1-0.6-0.5-1-1.2-1.3c-0.1-0.1-0.3-0.1-0.5-0.1
				c-0.2-0.1-0.5-0.1-0.8-0.1l0,0c-0.1,0-0.3,0-0.5,0c-0.2,0-0.5,0-0.7,0c-0.2,0-0.4,0-0.7,0h-10c-0.3,0-0.5,0-0.7,0
				c-0.2,0-0.3,0-0.4,0c-0.3,0-0.6,0.1-0.9,0.1c-0.1,0-0.2,0-0.3,0.1c-0.1,0-0.3,0.1-0.4,0.1l0,0c-0.2,0.1-0.4,0.2-0.5,0.3
				c0,0-0.1,0.1-0.1,0.1c-0.1,0.1-0.3,0.3-0.4,0.4l0,0c0,0-0.1,0.1-0.1,0.1c-0.1,0.2-0.2,0.4-0.2,0.6c0,0.1,0,0.3-0.1,0.5
				c0,0.2,0,0.5,0,0.8l0,0C72.3,59.4,72.3,59.4,72.3,59.5C72.3,59.4,72.3,59.5,72.3,59.5z"/>
			<path d="M100.7,98.9C100.7,98.9,100.7,98.9,100.7,98.9c-0.3,0-0.6,0-1-0.1c-0.2,0-0.5,0-0.8,0c-0.6,0-1-0.2-1.3-0.6
				c-0.8-0.9-0.6-2.7-0.3-5.2c0.2-1.5,0.3-3.2,0.3-5.1c0-1.5-0.1-2.8-0.2-3.9c-0.1-1.1-0.3-2-0.5-2.8c-0.2-0.8-0.6-1.4-1-1.9
				c-0.4-0.5-0.9-1-1.6-1.4c-0.7-0.4-2.8-1.5-7.9-2.8c-0.4-0.1-0.7-0.2-0.7-0.2c-0.1,0-0.2-0.1-0.2-0.2v-0.5c0-0.1,0.1-0.2,0.2-0.2
				s0.2,0.1,0.2,0.2v0.3c0.1,0,0.3,0.1,0.5,0.1c1.7,0.4,5.9,1.5,8,2.8c1.4,0.9,2.3,1.9,2.8,3.5c0.5,1.5,0.7,3.5,0.7,6.8
				c0,1.9-0.2,3.7-0.3,5.2c-0.2,2.3-0.4,4.1,0.2,4.8c0.2,0.3,0.5,0.4,1,0.4c0.3,0,0.5,0,0.8,0c0.4,0,0.7,0,0.9,0.1
				c0.1,0,0.2,0.1,0.2,0.2C100.9,98.8,100.8,98.9,100.7,98.9z"/>
			<path d="M101.9,99C101.9,99,101.8,99,101.9,99c0,0-0.2,0-1.2-0.1c-0.1,0-0.2-0.1-0.2-0.2c0-0.1,0.1-0.2,0.2-0.2
				c0.6,0,0.9,0.1,1,0.1c0.1,0,0.1,0,0.1,0c0.2,0,0.2,0.2,0.2,0.2C102.1,98.9,102,99,101.9,99z M101.7,99c0,0,0.1,0,0.1,0.1
				C101.8,99,101.7,99,101.7,99z M101.6,98.8C101.6,98.8,101.6,98.8,101.6,98.8C101.6,98.8,101.6,98.8,101.6,98.8z M101.6,98.8
				C101.6,98.8,101.6,98.8,101.6,98.8C101.6,98.8,101.6,98.8,101.6,98.8z"/>
			<path d="M81.7,113.8C81.7,113.8,81.7,113.8,81.7,113.8c-11.8,0-19.6-1.8-23.1-5.3c-2.2-2.2-2.2-4.5-2.2-5.8c0-0.2,0-0.3,0-0.4
				c0-1.3,0.8-2.3,2.4-3c1.1-0.4,2.1-0.6,2.3-0.6c0,0,0,0,0,0c0.1,0,0.2,0,0.3-0.1c0.5-0.1,1.3-0.1,2.6-0.2c0.1,0,0.2,0.1,0.2,0.2
				c0,0.1-0.1,0.2-0.2,0.2c-2.3,0.1-2.7,0.2-2.8,0.2c0,0-0.1,0-0.1,0c0,0-1.1,0.1-2.3,0.6c-0.6,0.3-1.1,0.6-1.5,1
				c-0.4,0.5-0.6,1-0.6,1.6c0,0.1,0,0.3,0,0.4c0,0.6,0,1.4,0.2,2.4c0.1,0.5,0.3,1,0.6,1.5c0.3,0.5,0.7,1.1,1.2,1.5
				c1.5,1.5,3.9,2.7,7.1,3.6c1.9,0.5,4.1,0.9,6.6,1.2c2.7,0.3,5.8,0.4,9.1,0.4c0.1,0,0.2,0.1,0.2,0.2
				C81.9,113.7,81.8,113.8,81.7,113.8z M61.5,98.9C61.5,98.9,61.5,98.9,61.5,98.9C61.5,98.9,61.5,98.9,61.5,98.9z M61.5,98.9
				C61.5,98.9,61.5,98.9,61.5,98.9C61.5,98.9,61.5,98.9,61.5,98.9z M61.5,98.9C61.5,98.9,61.5,98.9,61.5,98.9
				C61.5,98.9,61.5,98.9,61.5,98.9z M61.5,98.9C61.5,98.9,61.5,98.9,61.5,98.9C61.5,98.9,61.5,98.9,61.5,98.9z"/>
			<path d="M81.8,113.8L81.8,113.8c-0.2,0-0.3-0.1-0.3-0.2s0.1-0.2,0.2-0.2h0.1c3.4,0,6.4-0.2,9.1-0.4c2.5-0.3,4.7-0.7,6.6-1.2
				c3.2-0.9,5.6-2.1,7.1-3.6c0.5-0.5,0.9-1,1.2-1.5c0.3-0.5,0.5-1,0.6-1.5c0.3-0.9,0.2-1.8,0.2-2.4c0-0.2,0-0.3,0-0.4
				c0-0.6-0.2-1.1-0.6-1.6c-0.3-0.4-0.8-0.7-1.5-1c-1.1-0.5-2.2-0.6-2.3-0.6c0,0-0.1,0-0.1,0c-0.1,0-0.3-0.1-1.5-0.1c0,0,0,0,0,0
				c-0.4,0-0.9-0.1-1.3-0.1c-0.1,0-0.2-0.1-0.2-0.2c0-0.1,0.1-0.2,0.2-0.2c0.5,0,0.9,0.1,1.3,0.1c0,0,0,0,0,0c0.6,0,1.1,0.1,1.4,0.1
				c0.1,0,0.2,0,0.2,0c0,0,0,0,0,0c0.2,0,1.3,0.2,2.3,0.6c1.6,0.7,2.4,1.7,2.4,3c0,0.1,0,0.3,0,0.4c0,1.2,0,3.6-2.2,5.8
				C101.3,112,93.6,113.7,81.8,113.8z M102,98.9C102,98.9,102,98.9,102,98.9C102,98.9,102,98.9,102,98.9z M100.7,98.9
				C100.7,98.9,100.7,98.9,100.7,98.9C100.7,98.9,100.7,98.9,100.7,98.9z M100.6,98.9L100.6,98.9L100.6,98.9z M100.6,98.9
				C100.6,98.9,100.6,98.9,100.6,98.9C100.6,98.9,100.6,98.9,100.6,98.9z M100.6,98.9C100.6,98.9,100.6,98.9,100.6,98.9
				C100.6,98.9,100.6,98.9,100.6,98.9z"/>
			<path d="M64.1,98.8c-0.1,0-0.2-0.1-0.2-0.2c0-0.1,0.1-0.2,0.2-0.2c0.4,0,0.8-0.2,1-0.4c0.6-0.8,0.4-2.5,0.2-4.8
				C65.2,91.6,65,89.9,65,88c0-3.2,0.2-5.2,0.7-6.8c0.5-1.6,1.4-2.7,2.8-3.5c2.1-1.3,6.3-2.4,8-2.8c0.2-0.1,0.4-0.1,0.5-0.1v-0.2
				c0-0.1,0.1-0.2,0.2-0.2s0.2,0.1,0.2,0.2v0.4c0,0.1-0.1,0.2-0.2,0.2c0,0-0.3,0.1-0.7,0.2c-1.7,0.4-5.9,1.5-7.9,2.8
				c-0.7,0.4-1.2,0.8-1.6,1.4c-0.4,0.5-0.8,1.2-1,1.9c-0.3,0.8-0.4,1.7-0.5,2.8c-0.1,1-0.2,2.3-0.2,3.9c0,1.9,0.2,3.6,0.3,5.1
				c0.3,2.5,0.4,4.2-0.3,5.1C65.2,98.6,64.7,98.8,64.1,98.8C64.2,98.8,64.1,98.8,64.1,98.8z"/>
			<path d="M81.5,93.5c-0.3,0-1.3,0-2.4-0.5c-0.7-0.3-1.3-0.8-1.8-1.3c-0.6-0.7-0.9-1.6-1-2.6c-0.1-1.5-0.3-4.4-0.4-7.4
				c0-2.9,0.1-5.1,0.4-6.6c0-0.1,0.1-0.2,0.3-0.2c0.1,0,0.2,0.1,0.2,0.3c-0.4,2-0.6,6.7,0,13.9c0.1,0.9,0.4,1.7,0.9,2.4
				c0.4,0.5,0.9,0.9,1.6,1.2c1.1,0.5,2.2,0.5,2.3,0.5c0,0,0,0,0,0c0.1,0,0.2,0.1,0.2,0.2C81.8,93.4,81.7,93.5,81.5,93.5
				C81.5,93.5,81.5,93.5,81.5,93.5z"/>
			<path d="M73.2,99.2c-0.8,0-1.8-0.1-3-0.6c-0.1-0.1-0.2-0.2-0.1-0.3c0.1-0.1,0.2-0.2,0.3-0.1c2.1,0.9,3.7,0.6,4.2,0.4
				c-0.1-0.4,0-0.8,0.2-1.1c0.3-0.3,0.7-0.5,1.1-0.6c-1.6-0.7-4.4-2.4-4.6-2.4c-0.1-0.1-0.1-0.2-0.1-0.3c0.1-0.1,0.2-0.1,0.3-0.1
				c1.2,0.7,4.6,2.6,5.4,2.7c0.1,0,0.2,0.1,0.2,0.3c0,0.1-0.1,0.2-0.2,0.2c-0.3,0-1.3,0.1-1.7,0.5C75,98,75,98.3,75.1,98.6
				c0,0.1,0,0.2-0.1,0.3c0,0-0.5,0.2-1.4,0.3C73.5,99.2,73.3,99.2,73.2,99.2z"/>
			<path d="M79.4,98.3c-0.1,0-0.2-0.1-0.2-0.2s0.1-0.2,0.2-0.2c0.4,0,1.6,0,1.9-0.2c0,0,0,0,0,0c0,0,0,0,0,0c0-0.1,0-0.1,0-0.3
				c-0.1,0-0.4-0.2-2.3-0.2c-1.1,0-2.1,0.1-2.1,0.1c-0.1,0-0.2-0.1-0.2-0.2c0-0.1,0.1-0.2,0.2-0.2c0,0,1.1-0.1,2.3-0.1
				c2,0,2.5,0.2,2.6,0.5c0.1,0.2,0.1,0.5,0,0.7c0,0.1-0.1,0.1-0.1,0.2c0,0,0,0,0,0C81.3,98.2,80.7,98.3,79.4,98.3z"/>
			<path d="M80.7,100.7c-0.1,0-0.1,0-0.2,0c-0.9-0.1-2.1-0.4-3.2-0.7c-0.7-0.2-2-0.7-2.5-1.1c-0.1-0.1-0.1-0.2,0-0.3
				c0.1-0.1,0.2-0.1,0.3,0c0.7,0.6,3.6,1.5,5.5,1.7c0.4,0,0.6-0.1,0.8-0.3c0.4-0.6,0.1-1.9,0.1-2c0,0,0,0,0,0c0-0.1,0-0.2,0.2-0.3
				c0.1,0,0.2,0,0.3,0.2c0,0,0,0,0,0c0.1,0.3,0.3,1.6-0.1,2.4C81.6,100.4,81.3,100.7,80.7,100.7z"/>
			<path d="M79.1,99c-0.1,0-0.1,0-0.2-0.1c-0.2-0.1-0.1-0.4,0-0.9c0-0.1,0.2-0.2,0.3-0.1c0.1,0,0.2,0.2,0.1,0.3
				c0,0.1-0.1,0.2-0.1,0.2c0,0,0,0,0,0c0.2-0.1,0.5-0.3,0.8-0.3c0.5,0,0.6,0,0.6,0c0,0,0,0,0,0l0.2,0.4c0,0-0.2,0.1-0.8,0.1
				c-0.2,0-0.4,0.1-0.5,0.2c-0.1,0.1-0.2,0.1-0.3,0.1C79.2,98.9,79.2,99,79.1,99z"/>
			<path d="M81.6,93.5C81.6,93.5,81.5,93.5,81.6,93.5c-0.2,0-0.3-0.1-0.3-0.2c0-0.1,0.1-0.2,0.2-0.2c0,0,1.1,0,2.3-0.5
				c0.7-0.3,1.2-0.7,1.6-1.2c0.5-0.6,0.8-1.4,0.9-2.4c0.6-7.2,0.4-11.9,0-13.9c0-0.1,0.1-0.2,0.2-0.3c0.1,0,0.2,0.1,0.3,0.2
				c0.3,1.5,0.4,3.7,0.4,6.6c0,3-0.2,6-0.4,7.4c-0.1,1-0.4,1.9-1,2.6c-0.5,0.6-1,1-1.8,1.3C82.9,93.5,81.9,93.5,81.6,93.5z"/>
			<path d="M89.9,99.2c-0.1,0-0.3,0-0.4,0c-0.8-0.1-1.3-0.3-1.4-0.3c-0.1,0-0.2-0.2-0.1-0.3c0.1-0.4,0.1-0.7-0.1-0.9
				c-0.4-0.5-1.3-0.5-1.7-0.5c0,0,0,0,0,0c-0.1,0-0.2-0.1-0.2-0.2c0-0.1,0.1-0.2,0.2-0.3c0.7-0.2,4.1-2,5.4-2.7
				c0.1-0.1,0.3,0,0.3,0.1c0.1,0.1,0,0.3-0.1,0.3c-0.1,0.1-3,1.7-4.6,2.4c0.4,0.1,0.8,0.3,1.1,0.6c0.2,0.3,0.3,0.6,0.2,1.1
				c0.2,0.1,0.6,0.1,1.1,0.2c0.7,0,1.8,0,3.1-0.6c0.1-0.1,0.3,0,0.3,0.1c0.1,0.1,0,0.3-0.1,0.3C92.2,98.9,91.1,99.2,89.9,99.2z"/>
			<path d="M83.7,98.3c-1.2,0-1.8-0.1-2.1-0.3c0,0,0,0,0,0c-0.1,0-0.1-0.1-0.1-0.2c-0.1-0.2-0.1-0.5,0-0.7c0.1-0.3,0.6-0.5,2.6-0.5
				c1.1,0,2.3,0.1,2.3,0.1c0.1,0,0.2,0.1,0.2,0.2c0,0.1-0.1,0.2-0.2,0.2c0,0-1-0.1-2.1-0.1c-1.9,0-2.3,0.1-2.3,0.2
				c0,0.2-0.1,0.2,0,0.3c0,0,0,0,0,0c0,0,0,0,0,0c0.3,0.2,1.5,0.2,1.9,0.2c0.1,0,0.2,0.1,0.2,0.2S83.8,98.3,83.7,98.3z"/>
			<path d="M82.4,100.7c-0.6,0-0.9-0.3-1-0.6c-0.2-0.3-0.3-0.8-0.3-1.4c0-0.5,0.1-0.9,0.1-1c0,0,0,0,0,0c0-0.1,0.2-0.2,0.3-0.2
				c0.1,0,0.2,0.2,0.2,0.3c0,0,0,0,0,0c0,0.1-0.3,1.4,0.1,2c0.2,0.3,0.4,0.4,0.8,0.3c1.9-0.2,4.8-1.1,5.5-1.7c0.1-0.1,0.2-0.1,0.3,0
				c0.1,0.1,0.1,0.2,0,0.3c-0.5,0.4-1.8,0.9-2.5,1.1c-1.1,0.4-2.3,0.6-3.2,0.7C82.5,100.7,82.5,100.7,82.4,100.7z"/>
			<path d="M84,99c-0.1,0-0.1,0-0.2,0c-0.1,0-0.2-0.1-0.3-0.1c-0.2-0.1-0.4-0.2-0.5-0.2c-0.6,0-0.7,0-0.8-0.1l0.2-0.4c0,0,0,0,0,0
				c0,0,0.1,0,0.6,0c0.3,0,0.5,0.2,0.8,0.3c0,0,0,0,0,0c0-0.1,0-0.1-0.1-0.2c0-0.1,0-0.3,0.1-0.3c0.1,0,0.3,0,0.3,0.1
				c0.1,0.4,0.2,0.7,0,0.9C84.1,98.9,84.1,99,84,99z"/>
			<path d="M77.1,94.5C77.1,94.5,77.1,94.5,77.1,94.5c-1.3-0.1-2.3-1-3-2.5c-0.6-1.2-1-2.8-1.3-4.8c-0.5-3.3-0.3-6.6-0.3-6.7
				c0-0.1,0.1-0.2,0.2-0.2c0.1,0,0.2,0.1,0.2,0.2c0,0-0.2,3.3,0.3,6.6c0.3,1.9,0.7,3.5,1.2,4.6c0.3,0.7,0.7,1.2,1.1,1.6
				c0.5,0.4,1,0.6,1.5,0.7c0.1,0,0.2,0.1,0.2,0.3C77.3,94.4,77.2,94.5,77.1,94.5z"/>
			<path d="M85.3,94.5c-0.1,0-0.2-0.1-0.2-0.2c0-0.1,0-0.3,0.1-0.3c1-0.3,1.8-1.2,2.4-2.7c0.5-1.2,0.9-2.9,1.1-4.8
				c0.4-3.4,0.3-6.6,0.3-6.6c0-0.1,0.1-0.2,0.2-0.2c0.1,0,0.2,0.1,0.2,0.2c0,0,0.1,3.3-0.3,6.7c-0.2,2-0.6,3.7-1.2,4.9
				C87.3,93.1,86.4,94.1,85.3,94.5C85.3,94.4,85.3,94.5,85.3,94.5z"/>
			<path d="M87.6,95.4c-0.1,0-0.2-0.1-0.2-0.2c0-0.1,0-0.3,0.1-0.3c1.4-0.5,2.4-2.8,2.9-6.6c0.4-3,0.3-5.9,0.3-5.9
				c0-0.1,0.1-0.2,0.2-0.2c0.1,0,0.2,0.1,0.2,0.2c0,0,0.1,2.9-0.3,6c-0.2,1.8-0.6,3.3-1,4.4C89.3,94.2,88.6,95.1,87.6,95.4
				C87.7,95.4,87.6,95.4,87.6,95.4z"/>
			<path d="M74.2,94.5C74.2,94.5,74.1,94.5,74.2,94.5c-0.8-0.1-1.7-1.4-2.8-3.8c-0.7-1.8-1.3-3.5-1.3-3.5c0-0.1,0-0.3,0.2-0.3
				c0.1,0,0.3,0,0.3,0.2c0,0,0.5,1.7,1.3,3.5c0.4,1,0.8,1.8,1.2,2.4c0.6,0.9,0.9,1.1,1.2,1.1c0.1,0,0.2,0.1,0.2,0.3
				C74.4,94.4,74.3,94.5,74.2,94.5z"/>
			<path d="M92.8,95.4c-0.1,0-0.1,0-0.2-0.1c-0.1-0.1-0.1-0.2,0-0.3c0.4-0.3,0.8-1,1.1-2.1c0.3-0.9,0.5-2.1,0.8-3.4
				c0.4-2.3,0.5-4.5,0.5-4.6c0-0.1,0.1-0.2,0.2-0.2c0.1,0,0.2,0.1,0.2,0.2c0,0-0.1,2.2-0.5,4.6c-0.2,1.4-0.5,2.6-0.8,3.5
				c-0.4,1.2-0.8,2-1.3,2.4C92.9,95.4,92.8,95.4,92.8,95.4z"/>
			<path d="M92.8,96.8c-0.1,0-0.2-0.1-0.2-0.2c0-0.1,0.1-0.2,0.2-0.3c0.5-0.1,1.6-1,2.8-5.8c0.7-2.8,1.1-5.6,1.1-5.7
				c0-0.1,0.1-0.2,0.3-0.2c0.1,0,0.2,0.1,0.2,0.3c0,0-0.4,2.9-1.1,5.7c-0.4,1.7-0.9,3-1.3,4C94.1,96,93.5,96.7,92.8,96.8
				C92.8,96.8,92.8,96.8,92.8,96.8z"/>
			<path d="M71,95.9C71,95.9,71,95.9,71,95.9c-0.6-0.1-1.1-0.7-1.6-1.8c-0.4-0.8-0.8-1.9-1.2-3.3c-0.7-2.3-1.2-4.6-1.2-4.6
				c0-0.1,0.1-0.2,0.2-0.3c0.1,0,0.2,0.1,0.3,0.2c0,0,0.5,2.3,1.2,4.6c0.4,1.3,0.8,2.4,1.2,3.2c0.6,1.2,1,1.5,1.3,1.5
				c0.1,0,0.2,0.1,0.2,0.3C71.2,95.9,71.1,95.9,71,95.9z"/>
			<path d="M71.5,97.7c-0.8,0-1.6-0.2-2.3-0.7c-0.5-0.4-1-0.9-1.4-1.6c-0.7-1.1-0.9-2.3-0.9-2.3c0-0.1,0.1-0.2,0.2-0.3
				c0.1,0,0.2,0.1,0.3,0.2l0,0c0,0,0.2,1.1,0.8,2.2c0.4,0.6,0.8,1.1,1.3,1.5c0.6,0.4,1.3,0.6,2.1,0.6c0,0,0,0,0,0
				c0.1,0,0.2,0.1,0.2,0.2C71.8,97.6,71.7,97.7,71.5,97.7C71.6,97.7,71.6,97.7,71.5,97.7z"/>
			<path d="M82.4,103.1c-1,0-1.9-0.1-2.8-0.3c-0.9-0.2-1.7-0.5-2.4-0.8c-1.3-0.6-1.8-1.3-1.9-1.3c-0.1-0.1-0.1-0.2,0-0.3
				c0.1-0.1,0.2-0.1,0.3,0c0.2,0.2,0.8,0.8,1.7,1.2c0.7,0.3,1.5,0.6,2.3,0.8c1.1,0.2,2.2,0.3,3.4,0.2c0.1,0,0.2,0.1,0.2,0.2
				c0,0.1-0.1,0.2-0.2,0.2C82.9,103.1,82.7,103.1,82.4,103.1z"/>
			<path d="M80.7,104.1c-0.5,0-1.1,0-1.6-0.1c-0.1,0-0.2-0.1-0.2-0.3s0.1-0.2,0.3-0.2c1.1,0.2,2.2,0.1,3.4,0
				c0.9-0.1,1.8-0.4,2.6-0.7c1.4-0.6,2.3-1.3,2.3-1.3c0.1-0.1,0.2-0.1,0.3,0c0.1,0.1,0.1,0.2,0,0.3c0,0-0.9,0.7-2.4,1.4
				c-0.9,0.4-1.8,0.6-2.7,0.8C82,104.1,81.4,104.1,80.7,104.1z"/>
			<path d="M81.2,105.7c-1,0-2.1-0.1-3.1-0.4c-1.6-0.4-3-1.2-4.1-2.2c-0.1-0.1-0.1-0.2,0-0.3c0.1-0.1,0.2-0.1,0.3,0
				c1,1,2.4,1.7,3.9,2.1c1.6,0.4,3.3,0.5,4.8,0.2c1.7-0.3,3.3-1,4.3-1.6c1.1-0.6,1.8-1.2,1.8-1.2c0.1-0.1,0.2-0.1,0.3,0
				c0.1,0.1,0.1,0.2,0,0.3c0,0-0.8,0.6-1.9,1.2c-1.1,0.6-2.7,1.4-4.5,1.7C82.5,105.6,81.9,105.7,81.2,105.7z"/>
			<path d="M72.1,107.5c0,0-0.1,0-0.1,0c-1.6-0.9-2.8-1.8-3.5-2.6c-0.6-0.7-0.9-1.4-0.8-2c0.1-0.4,0.3-0.8,0.8-1.2
				c0.3-0.3,0.8-0.5,1.3-0.7c0.9-0.3,1.7-0.5,1.7-0.5c0.1,0,0.2,0.1,0.3,0.2c0,0.1-0.1,0.2-0.2,0.3c0,0-0.8,0.1-1.7,0.4
				c-0.7,0.3-1.6,0.8-1.8,1.5c-0.1,0.7,0.5,2,4,4.1c0.1,0.1,0.1,0.2,0.1,0.3C72.2,107.5,72.2,107.5,72.1,107.5z"/>
			<path d="M85.8,109.8c-0.1,0-0.2-0.1-0.2-0.2c0-0.1,0.1-0.2,0.2-0.3c3-0.3,5.6-1,7.6-1.9c1.6-0.8,2.8-1.7,3.7-2.8
				c0.8-1,1.1-1.9,1.3-2.5c0.2-0.7,0.1-1.1,0.1-1.1c0-0.1,0.1-0.2,0.2-0.2c0.1,0,0.2,0.1,0.2,0.2c0,0,0,0.5-0.1,1.2
				c-0.2,0.7-0.5,1.7-1.3,2.7c-0.9,1.2-2.2,2.2-3.9,3C91.5,108.8,88.9,109.4,85.8,109.8C85.8,109.8,85.8,109.8,85.8,109.8z"/>
			<path d="M94,109.8c-0.1,0-0.2-0.1-0.2-0.2c0-0.1,0.1-0.2,0.2-0.2c2.5-0.2,4.5-3.9,4.5-4c0.1-0.1,0.2-0.2,0.3-0.1
				c0.1,0.1,0.2,0.2,0.1,0.3c0,0-0.5,1-1.4,2c-0.5,0.6-1,1.1-1.5,1.4C95.4,109.5,94.7,109.7,94,109.8C94,109.8,94,109.8,94,109.8z"
				/>
			<path d="M86.2,107.5c-0.1,0-0.2-0.1-0.2-0.2c0-0.1,0.1-0.2,0.2-0.3c0,0,1.2-0.2,2.5-0.6c0.8-0.3,1.4-0.6,2-1
				c0.7-0.4,1.1-1,1.4-1.5c0.1-0.1,0.2-0.2,0.3-0.1c0.1,0.1,0.2,0.2,0.1,0.3c-0.3,0.6-0.8,1.2-1.5,1.7c-0.6,0.4-1.3,0.7-2.1,1
				C87.5,107.4,86.3,107.5,86.2,107.5C86.2,107.5,86.2,107.5,86.2,107.5z"/>
			<path d="M74.1,109.8c-0.1,0-0.2-0.1-0.2-0.2c-0.8-2.4-1.3-4.2-1.5-5.6c-0.1-1,0-1.7,0.3-2.2c0.2-0.3,0.4-0.4,0.6-0.4l0,0.5
				c0,0,0,0,0,0c0,0-0.1,0-0.2,0.2c-0.1,0.2-0.3,0.8-0.2,1.9c0.1,1.3,0.6,3.2,1.4,5.4C74.3,109.6,74.2,109.7,74.1,109.8
				C74.1,109.8,74.1,109.8,74.1,109.8z"/>
			<path d="M67.9,109.1C67.9,109.1,67.9,109.1,67.9,109.1c-1.1-0.2-2-0.7-2.6-1.5c-0.5-0.7-0.8-1.5-1-2.5c-0.3-1.7,0-3.3,0-3.4
				c0-0.1,0.1-0.2,0.3-0.2c0.1,0,0.2,0.1,0.2,0.3l0,0c0,0-0.3,1.6,0,3.2c0.2,0.9,0.5,1.7,0.9,2.3c0.5,0.7,1.3,1.2,2.2,1.4
				c0.1,0,0.2,0.1,0.2,0.3C68.2,109,68.1,109.1,67.9,109.1z"/>
			<path d="M83.3,56c-0.5,0-0.9-0.4-0.9-0.9c0-0.5,0.4-0.9,0.9-0.9c0.5,0,0.9,0.4,0.9,0.9C84.2,55.6,83.8,56,83.3,56z M83.3,54.6
				c-0.3,0-0.5,0.2-0.5,0.5c0,0.3,0.2,0.5,0.5,0.5c0.3,0,0.5-0.2,0.5-0.5C83.8,54.8,83.6,54.6,83.3,54.6z"/>
			<path d="M84.7,56c-0.5,0-0.9-0.4-0.9-0.9c0-0.5,0.4-0.9,0.9-0.9s0.9,0.4,0.9,0.9C85.6,55.6,85.2,56,84.7,56z M84.7,54.6
				c-0.3,0-0.5,0.2-0.5,0.5c0,0.3,0.2,0.5,0.5,0.5s0.5-0.2,0.5-0.5C85.2,54.8,84.9,54.6,84.7,54.6z"/>
			<path d="M86,56c-0.5,0-0.9-0.4-0.9-0.9c0-0.5,0.4-0.9,0.9-0.9c0.5,0,0.9,0.4,0.9,0.9C86.9,55.6,86.5,56,86,56z M86,54.6
				c-0.3,0-0.5,0.2-0.5,0.5c0,0.3,0.2,0.5,0.5,0.5c0.3,0,0.5-0.2,0.5-0.5C86.5,54.8,86.3,54.6,86,54.6z"/>
			<path d="M87.4,56.2c-0.2,0-0.3-0.1-0.5-0.2c-0.2-0.2-0.4-0.4-0.4-0.7c0-0.5,0.4-0.9,0.9-0.9c0.5,0,0.9,0.4,0.9,0.9
				c0,0.1,0,0.1,0,0.2c-0.1,0.3-0.2,0.5-0.5,0.6C87.7,56.2,87.6,56.2,87.4,56.2C87.4,56.2,87.4,56.2,87.4,56.2z M87.4,54.8
				c-0.3,0-0.5,0.2-0.5,0.5c0,0.2,0.1,0.3,0.2,0.4l0,0c0.1,0.1,0.2,0.1,0.3,0.1l0,0c0.1,0,0.2,0,0.2-0.1c0.1-0.1,0.2-0.2,0.2-0.3
				l0,0c0,0,0-0.1,0-0.1C87.9,55,87.7,54.8,87.4,54.8z"/>
			<path d="M82.5,54.6c-0.5,0-0.9-0.4-0.9-0.9c0-0.5,0.4-0.9,0.9-0.9s0.9,0.4,0.9,0.9C83.4,54.2,83,54.6,82.5,54.6z M82.5,53.2
				c-0.3,0-0.5,0.2-0.5,0.5c0,0.3,0.2,0.5,0.5,0.5c0.3,0,0.5-0.2,0.5-0.5C83,53.5,82.8,53.2,82.5,53.2z"/>
			<path d="M83.9,54.6c-0.5,0-0.9-0.4-0.9-0.9c0-0.5,0.4-0.9,0.9-0.9s0.9,0.4,0.9,0.9C84.8,54.2,84.4,54.6,83.9,54.6z M83.9,53.2
				c-0.3,0-0.5,0.2-0.5,0.5c0,0.3,0.2,0.5,0.5,0.5s0.5-0.2,0.5-0.5C84.4,53.5,84.1,53.2,83.9,53.2z"/>
			<path d="M85.2,54.6c-0.5,0-0.9-0.4-0.9-0.9c0-0.5,0.4-0.9,0.9-0.9c0.5,0,0.9,0.4,0.9,0.9C86.1,54.2,85.7,54.6,85.2,54.6z
				 M85.2,53.2c-0.3,0-0.5,0.2-0.5,0.5c0,0.3,0.2,0.5,0.5,0.5c0.3,0,0.5-0.2,0.5-0.5C85.7,53.5,85.5,53.2,85.2,53.2z"/>
			<path d="M86.6,54.6c-0.5,0-0.9-0.4-0.9-0.9c0-0.5,0.4-0.9,0.9-0.9l0,0c0.2,0,0.4,0.1,0.5,0.2l0,0c0.2,0.2,0.4,0.4,0.4,0.7
				c0,0,0,0.1,0,0.1l0,0c0,0.2-0.1,0.4-0.3,0.5C87,54.5,86.8,54.6,86.6,54.6z M86.6,53.2c-0.3,0-0.5,0.2-0.5,0.5
				c0,0.3,0.2,0.5,0.5,0.5c0.2,0,0.4-0.2,0.5-0.4c0,0,0-0.1,0-0.1c0-0.2-0.1-0.3-0.2-0.4C86.8,53.3,86.7,53.2,86.6,53.2z"/>
			<path d="M88,54.8c-0.5,0-0.9-0.4-0.9-0.9c0,0,0-0.1,0-0.1c0-0.2,0.1-0.4,0.3-0.5c0.2-0.1,0.4-0.2,0.6-0.2c0,0,0,0,0.1,0
				c0.2,0,0.4,0.1,0.6,0.3c0.2,0.2,0.2,0.4,0.2,0.6C88.9,54.4,88.5,54.8,88,54.8z M88,53.5c-0.2,0-0.4,0.2-0.5,0.4l0,0
				c0,0,0,0,0,0.1c0,0.3,0.2,0.5,0.5,0.5c0.3,0,0.5-0.2,0.5-0.5c0-0.1,0-0.2-0.1-0.3l0,0C88.2,53.5,88.1,53.5,88,53.5L88,53.5
				C88,53.5,88,53.5,88,53.5z"/>
			<path d="M88.7,56.4c-0.3,0-0.5-0.1-0.6-0.3c-0.1-0.1-0.2-0.3-0.2-0.5c0-0.1,0-0.1,0-0.2l0,0c0.1-0.4,0.4-0.6,0.8-0.6
				c0.4,0,0.8,0.3,0.8,0.8l0,0c0,0,0,0,0,0c0,0.1,0,0.3-0.1,0.4c-0.1,0.1-0.2,0.2-0.3,0.3C89,56.4,88.9,56.4,88.7,56.4z M88.3,55.5
				C88.3,55.5,88.3,55.6,88.3,55.5c0,0.2,0,0.3,0.1,0.3c0.1,0.1,0.2,0.2,0.3,0.2c0.1,0,0.2,0,0.2-0.1c0.1,0,0.1-0.1,0.1-0.2
				c0-0.1,0-0.1,0-0.2l0,0c0,0,0,0,0,0c0-0.2-0.2-0.4-0.4-0.4C88.5,55.2,88.3,55.3,88.3,55.5z"/>
			<path d="M89.7,56.5c-0.1,0-0.2,0-0.2,0c-0.2-0.1-0.4-0.3-0.4-0.5c0,0,0-0.1,0-0.1l0,0c0-0.1,0-0.2,0.1-0.3l0,0
				c0.1-0.2,0.3-0.3,0.6-0.3c0.4,0,0.7,0.3,0.7,0.7C90.4,56.2,90.1,56.5,89.7,56.5z M89.4,55.8C89.4,55.8,89.4,55.8,89.4,55.8
				c0,0.1,0.1,0.2,0.2,0.3l0,0c0,0,0.1,0,0.1,0c0.1,0,0.3-0.1,0.3-0.3c0-0.1-0.1-0.3-0.3-0.3c-0.1,0-0.2,0-0.2,0.1
				C89.5,55.7,89.4,55.8,89.4,55.8z"/>
			<path d="M89.1,55.2c-0.4,0-0.7-0.3-0.7-0.7s0.3-0.7,0.7-0.7c0.4,0,0.7,0.3,0.7,0.7C89.8,54.9,89.5,55.2,89.1,55.2z M89.1,54.3
				c-0.1,0-0.3,0.1-0.3,0.3s0.1,0.3,0.3,0.3c0.1,0,0.3-0.1,0.3-0.3C89.4,54.4,89.3,54.3,89.1,54.3z"/>
			<path d="M82.3,53.2c-0.4,0-0.7-0.3-0.7-0.7c0-0.4,0.3-0.7,0.7-0.7s0.7,0.3,0.7,0.7C83,52.9,82.7,53.2,82.3,53.2z M82.3,52.3
				c-0.1,0-0.3,0.1-0.3,0.3c0,0.1,0.1,0.3,0.3,0.3c0.1,0,0.3-0.1,0.3-0.3C82.6,52.4,82.5,52.3,82.3,52.3z"/>
			<path d="M83.6,53.2c-0.4,0-0.7-0.3-0.7-0.7c0-0.4,0.3-0.7,0.7-0.7s0.7,0.3,0.7,0.7C84.3,52.9,84,53.2,83.6,53.2z M83.6,52.3
				c-0.1,0-0.3,0.1-0.3,0.3c0,0.1,0.1,0.3,0.3,0.3s0.3-0.1,0.3-0.3C83.9,52.4,83.8,52.3,83.6,52.3z"/>
			<path d="M85,53.2c-0.4,0-0.7-0.3-0.7-0.7c0-0.4,0.3-0.7,0.7-0.7s0.7,0.3,0.7,0.7C85.6,52.9,85.3,53.2,85,53.2z M85,52.2
				c-0.1,0-0.3,0.1-0.3,0.3c0,0.1,0.1,0.3,0.3,0.3c0.1,0,0.3-0.1,0.3-0.3C85.2,52.4,85.1,52.2,85,52.2z"/>
			<path d="M86.2,53.2c-0.4,0-0.7-0.3-0.7-0.7c0-0.4,0.3-0.7,0.7-0.7s0.7,0.3,0.7,0.7C86.8,52.9,86.5,53.2,86.2,53.2z M86.2,52.3
				c-0.1,0-0.3,0.1-0.3,0.3c0,0.1,0.1,0.3,0.3,0.3c0.1,0,0.3-0.1,0.3-0.3C86.4,52.4,86.3,52.3,86.2,52.3z"/>
			<path d="M87.3,53.5c-0.1,0-0.3-0.1-0.4-0.1c-0.2-0.1-0.3-0.3-0.3-0.5c0-0.4,0.3-0.7,0.7-0.7l0,0c0,0,0.1,0,0.1,0l0,0
				c0.3,0.1,0.5,0.3,0.5,0.7C88,53.2,87.7,53.5,87.3,53.5z M87.3,52.5c-0.1,0-0.3,0.1-0.3,0.3c0,0.1,0,0.2,0.1,0.2
				c0,0,0.1,0.1,0.2,0.1c0.1,0,0.3-0.1,0.3-0.3C87.6,52.7,87.5,52.5,87.3,52.5C87.4,52.5,87.3,52.5,87.3,52.5z"/>
			<path d="M88.4,53.7c-0.2,0-0.4-0.1-0.6-0.3c-0.1-0.1-0.1-0.2-0.1-0.4c0-0.2,0.1-0.3,0.2-0.5c0.1-0.1,0.3-0.2,0.5-0.2l0,0
				c0.4,0,0.7,0.3,0.7,0.7C89.1,53.3,88.8,53.6,88.4,53.7C88.5,53.7,88.4,53.7,88.4,53.7z M88.4,52.7c-0.1,0-0.1,0-0.2,0.1l0,0
				c0,0.1-0.1,0.1-0.1,0.2c0,0.1,0,0.1,0,0.1c0,0.1,0.1,0.1,0.2,0.1c0,0,0,0,0,0l0,0c0.1,0,0.2-0.1,0.2-0.3
				C88.7,52.9,88.6,52.7,88.4,52.7L88.4,52.7z"/>
			<path d="M89.4,54.3c-0.4,0-0.7-0.3-0.7-0.7c0-0.4,0.3-0.7,0.7-0.7c0.4,0,0.7,0.3,0.7,0.7C90,54,89.7,54.3,89.4,54.3z M89.4,53.3
				c-0.1,0-0.3,0.1-0.3,0.3c0,0.1,0.1,0.3,0.3,0.3c0.1,0,0.3-0.1,0.3-0.3C89.6,53.4,89.5,53.3,89.4,53.3z"/>
			<path d="M90.1,54.8c-0.1,0-0.3,0-0.4-0.1l0,0c-0.2-0.1-0.3-0.3-0.3-0.6c0-0.4,0.3-0.7,0.7-0.7c0.4,0,0.7,0.3,0.7,0.7
				c0,0.2-0.1,0.3-0.2,0.5C90.5,54.8,90.3,54.8,90.1,54.8z M90,54.4c0,0,0.1,0,0.2,0c0.1,0,0.1,0,0.2-0.1c0.1-0.1,0.1-0.1,0.1-0.2
				c0-0.1-0.1-0.3-0.3-0.3c-0.1,0-0.3,0.1-0.3,0.3C89.9,54.3,89.9,54.3,90,54.4z"/>
			<path d="M90.2,55.6c-0.4,0-0.7-0.3-0.7-0.7c0-0.2,0.1-0.3,0.2-0.5c0.1-0.1,0.3-0.2,0.5-0.2c0.1,0,0.3,0,0.4,0.1l0,0
				c0.2,0.1,0.3,0.3,0.3,0.6C90.9,55.3,90.6,55.6,90.2,55.6z M90.2,54.6c-0.1,0-0.1,0-0.2,0.1l0,0c0,0-0.1,0.1-0.1,0.2
				c0,0.1,0.1,0.3,0.3,0.3c0.1,0,0.3-0.1,0.3-0.3c0-0.1,0-0.2-0.1-0.2C90.3,54.6,90.3,54.6,90.2,54.6z"/>
			<path d="M91.1,56.1c0,0-0.1,0-0.1,0l0,0c-0.1,0-0.2-0.1-0.3-0.2l0,0c-0.1-0.1-0.2-0.3-0.2-0.5c0-0.4,0.3-0.7,0.7-0.7
				s0.7,0.3,0.7,0.7S91.5,56.1,91.1,56.1z M91,55.7C91,55.7,91.1,55.7,91,55.7c0.2,0,0.3-0.1,0.3-0.3s-0.1-0.3-0.3-0.3
				c-0.1,0-0.3,0.1-0.3,0.3c0,0.1,0,0.1,0.1,0.2C90.9,55.7,91,55.7,91,55.7z"/>
			<path d="M90.7,56.9c-0.4,0-0.7-0.3-0.7-0.7s0.3-0.7,0.7-0.7c0,0,0.1,0,0.1,0c0.1,0,0.2,0.1,0.3,0.2c0.1,0.1,0.2,0.3,0.2,0.5
				C91.3,56.6,91,56.9,90.7,56.9z M90.7,56c-0.1,0-0.3,0.1-0.3,0.3s0.1,0.3,0.3,0.3c0.1,0,0.3-0.1,0.3-0.3c0-0.1,0-0.1-0.1-0.2l0,0
				C90.8,56,90.8,56,90.7,56L90.7,56C90.7,56,90.7,56,90.7,56z"/>
			<path d="M91.3,57.6c-0.4,0-0.7-0.3-0.7-0.7c0-0.4,0.3-0.7,0.7-0.7S92,56.6,92,57C92,57.3,91.7,57.6,91.3,57.6z M91.3,56.7
				c-0.1,0-0.3,0.1-0.3,0.3c0,0.1,0.1,0.3,0.3,0.3c0.1,0,0.3-0.1,0.3-0.3C91.6,56.8,91.4,56.7,91.3,56.7z"/>
			<path d="M91.7,58.6c-0.4,0-0.7-0.3-0.7-0.7s0.3-0.7,0.7-0.7c0.4,0,0.7,0.3,0.7,0.7S92,58.6,91.7,58.6z M91.7,57.6
				c-0.1,0-0.3,0.1-0.3,0.3s0.1,0.3,0.3,0.3c0.1,0,0.3-0.1,0.3-0.3S91.8,57.6,91.7,57.6z"/>
			<path d="M91.6,59.7c-0.4,0-0.7-0.3-0.7-0.7s0.3-0.7,0.7-0.7s0.7,0.3,0.7,0.7S92,59.7,91.6,59.7z M91.6,58.6
				c-0.2,0-0.3,0.2-0.3,0.3s0.2,0.3,0.3,0.3s0.3-0.2,0.3-0.3S91.8,58.6,91.6,58.6z"/>
			<path d="M91.4,60.7c-0.4,0-0.7-0.3-0.7-0.7s0.3-0.7,0.7-0.7s0.7,0.3,0.7,0.7S91.9,60.7,91.4,60.7z M91.4,59.7
				c-0.2,0-0.3,0.2-0.3,0.3s0.2,0.3,0.3,0.3c0.2,0,0.3-0.2,0.3-0.3S91.6,59.7,91.4,59.7z"/>
			<path d="M91.2,61.8c-0.4,0-0.7-0.3-0.7-0.7s0.3-0.7,0.7-0.7c0.4,0,0.7,0.3,0.7,0.7S91.6,61.8,91.2,61.8z M91.2,60.7
				c-0.2,0-0.3,0.2-0.3,0.3c0,0.2,0.2,0.3,0.3,0.3s0.3-0.2,0.3-0.3C91.6,60.9,91.4,60.7,91.2,60.7z"/>
			<path d="M91.2,63.3L91.2,63.3c-0.3,0-0.6-0.2-0.7-0.4c-0.1-0.1-0.1-0.2-0.1-0.4c0-0.1,0-0.2,0.1-0.3c0.1-0.3,0.4-0.5,0.7-0.5
				c0.4,0,0.8,0.4,0.8,0.8C92,62.9,91.6,63.3,91.2,63.3z M91.2,62c-0.2,0-0.3,0.1-0.4,0.2l0,0c0,0.1,0,0.1,0,0.2c0,0.1,0,0.1,0,0.2
				c0.1,0.1,0.2,0.2,0.4,0.2l0,0c0.2,0,0.4-0.2,0.4-0.4C91.6,62.2,91.4,62,91.2,62z"/>
			<path d="M81.7,52c-0.8,0-1.5-0.3-1.8-0.7c0-0.1-0.1-0.1-0.1-0.2c0,0,0-0.1,0-0.1c0-0.5,0.8-1,1.9-1c0.5,0,0.9,0.1,1.2,0.2
				c0.4,0.2,0.6,0.4,0.6,0.7c0,0,0,0,0,0c0,0.1,0,0.2-0.1,0.3C83.2,51.8,82.5,52,81.7,52z M81.7,50.5c-0.4,0-0.8,0.1-1.1,0.2
				c-0.2,0.1-0.4,0.2-0.4,0.4c0,0,0,0,0,0c0,0,0,0,0,0.1c0.1,0.2,0.7,0.5,1.4,0.5c0.7,0,1.3-0.2,1.4-0.4l0,0c0,0,0-0.1,0-0.1l0,0
				l0,0C83.1,50.8,82.6,50.5,81.7,50.5z"/>
			<path d="M82.3,50.4c-0.4,0-0.7-0.3-0.7-0.7c0-0.4,0.3-0.7,0.7-0.7c0.4,0,0.7,0.3,0.7,0.7C82.9,50.1,82.6,50.4,82.3,50.4z
				 M82.3,49.4c-0.1,0-0.3,0.1-0.3,0.3c0,0.1,0.1,0.3,0.3,0.3s0.3-0.1,0.3-0.3C82.6,49.6,82.4,49.4,82.3,49.4z"/>
			<path d="M83.5,50.6c-0.4,0-0.7-0.3-0.7-0.7c0-0.4,0.3-0.7,0.7-0.7c0.4,0,0.7,0.3,0.7,0.7C84.2,50.3,83.9,50.6,83.5,50.6z
				 M83.5,49.6c-0.1,0-0.3,0.1-0.3,0.3c0,0.1,0.1,0.3,0.3,0.3c0.1,0,0.3-0.1,0.3-0.3C83.8,49.8,83.7,49.6,83.5,49.6z"/>
			<path d="M84.7,50.9c-0.4,0-0.7-0.3-0.7-0.7c0-0.4,0.3-0.7,0.7-0.7s0.7,0.3,0.7,0.7C85.3,50.6,85,50.9,84.7,50.9z M84.7,50
				c-0.1,0-0.3,0.1-0.3,0.3c0,0.1,0.1,0.3,0.3,0.3c0.1,0,0.3-0.1,0.3-0.3C84.9,50.1,84.8,50,84.7,50z"/>
			<path d="M85.8,51.5c-0.1,0-0.2,0-0.3-0.1l0,0c-0.2-0.1-0.3-0.3-0.3-0.6c0-0.4,0.3-0.7,0.7-0.7c0.4,0,0.7,0.3,0.7,0.7
				c0,0.3-0.2,0.6-0.5,0.7C85.9,51.5,85.9,51.5,85.8,51.5z M85.7,51.1c0,0,0.1,0,0.1,0c0,0,0,0,0,0l0,0c0.1,0,0.2-0.1,0.2-0.3
				c0-0.1-0.1-0.3-0.3-0.3c-0.1,0-0.3,0.1-0.3,0.3C85.6,50.9,85.6,51,85.7,51.1z"/>
			<path d="M86.7,52c-0.4,0-0.7-0.3-0.7-0.7c0-0.4,0.3-0.7,0.7-0.7s0.7,0.3,0.7,0.7C87.4,51.7,87.1,52,86.7,52z M86.7,51.1
				c-0.1,0-0.3,0.1-0.3,0.3c0,0.1,0.1,0.3,0.3,0.3c0.1,0,0.3-0.1,0.3-0.3C87,51.2,86.8,51.1,86.7,51.1z"/>
			<path d="M87.6,52.5c-0.1,0-0.1,0-0.2,0c-0.3-0.1-0.5-0.3-0.5-0.6c0-0.4,0.3-0.7,0.7-0.7s0.7,0.3,0.7,0.7c0,0.1,0,0.2-0.1,0.3
				c0,0.1-0.1,0.2-0.2,0.2C87.8,52.5,87.7,52.5,87.6,52.5z M87.6,51.6c-0.1,0-0.3,0.1-0.3,0.3c0,0.1,0.1,0.2,0.2,0.3l0,0
				c0,0,0,0,0.1,0c0.1,0,0.1,0,0.2-0.1c0,0,0.1-0.1,0.1-0.1c0,0,0-0.1,0-0.1C87.8,51.7,87.7,51.6,87.6,51.6z"/>
			<path d="M88.1,52.9C88.1,52.9,88.1,52.9,88.1,52.9L88.1,52.9c-0.3,0-0.5-0.3-0.5-0.5c0-0.1,0-0.1,0-0.2c0-0.1,0.1-0.2,0.2-0.2
				l0,0c0.1,0,0.2-0.1,0.3-0.1c0.3,0,0.5,0.2,0.5,0.5c0,0.1,0,0.2-0.1,0.3C88.5,52.8,88.3,52.9,88.1,52.9z M88.1,52.5
				C88.1,52.5,88.1,52.5,88.1,52.5c0.1,0,0.1,0,0.1-0.1c0,0,0,0,0-0.1c0-0.1-0.1-0.1-0.1-0.1c0,0,0,0-0.1,0c0,0,0,0,0,0.1l0,0
				c0,0,0,0,0,0C88,52.4,88,52.5,88.1,52.5z"/>
			<path d="M85.7,52.4c-0.4,0-0.7-0.3-0.7-0.7c0-0.3,0.2-0.6,0.5-0.7c0,0,0.1,0,0.1,0l0,0c0.1,0,0.2,0,0.3,0.1l0,0
				c0.2,0.1,0.3,0.3,0.3,0.6C86.3,52.1,86,52.4,85.7,52.4z M85.7,51.4C85.7,51.4,85.6,51.4,85.7,51.4L85.7,51.4
				c-0.2,0-0.3,0.1-0.3,0.3c0,0.1,0.1,0.3,0.3,0.3c0.1,0,0.3-0.1,0.3-0.3c0-0.1-0.1-0.2-0.1-0.2C85.8,51.5,85.7,51.4,85.7,51.4z"/>
			<path d="M84.7,52.1c-0.4,0-0.7-0.3-0.7-0.7c0-0.4,0.3-0.7,0.7-0.7s0.7,0.3,0.7,0.7C85.3,51.8,85,52.1,84.7,52.1z M84.7,51.2
				c-0.1,0-0.3,0.1-0.3,0.3c0,0.1,0.1,0.3,0.3,0.3s0.3-0.1,0.3-0.3C84.9,51.3,84.8,51.2,84.7,51.2z"/>
			<path d="M83.7,52c-0.4,0-0.7-0.3-0.7-0.7l0,0c0-0.1,0-0.2,0.1-0.3l0,0c0.1-0.2,0.3-0.3,0.6-0.3c0.4,0,0.7,0.3,0.7,0.7
				C84.4,51.7,84.1,52,83.7,52z M83.5,51.3c0,0.1,0.1,0.3,0.3,0.3c0.1,0,0.3-0.1,0.3-0.3c0-0.1-0.1-0.3-0.3-0.3
				c-0.1,0-0.2,0-0.2,0.1C83.5,51.2,83.5,51.2,83.5,51.3z"/>
			<path d="M81.7,56c-0.5,0-0.9-0.4-0.9-0.9c0-0.5,0.4-0.9,0.9-0.9s0.9,0.4,0.9,0.9C82.5,55.6,82.1,56,81.7,56z M81.7,54.6
				c-0.3,0-0.5,0.2-0.5,0.5c0,0.3,0.2,0.5,0.5,0.5s0.5-0.2,0.5-0.5C82.1,54.8,81.9,54.6,81.7,54.6z"/>
			<path d="M80,56c-0.5,0-0.9-0.4-0.9-0.9c0-0.5,0.4-0.9,0.9-0.9s0.9,0.4,0.9,0.9C80.9,55.6,80.5,56,80,56z M80,54.6
				c-0.3,0-0.5,0.2-0.5,0.5c0,0.3,0.2,0.5,0.5,0.5s0.5-0.2,0.5-0.5C80.5,54.8,80.3,54.6,80,54.6z"/>
			<path d="M78.7,56c-0.5,0-0.9-0.4-0.9-0.9c0-0.5,0.4-0.9,0.9-0.9s0.9,0.4,0.9,0.9C79.6,55.6,79.2,56,78.7,56z M78.7,54.6
				c-0.3,0-0.5,0.2-0.5,0.5c0,0.3,0.2,0.5,0.5,0.5s0.5-0.2,0.5-0.5C79.2,54.8,78.9,54.6,78.7,54.6z"/>
			<path d="M77.3,56c-0.5,0-0.9-0.4-0.9-0.9c0-0.5,0.4-0.9,0.9-0.9c0.5,0,0.9,0.4,0.9,0.9C78.2,55.6,77.8,56,77.3,56z M77.3,54.6
				c-0.3,0-0.5,0.2-0.5,0.5c0,0.3,0.2,0.5,0.5,0.5s0.5-0.2,0.5-0.5C77.8,54.8,77.6,54.6,77.3,54.6z"/>
			<path d="M75.9,56.2c-0.2,0-0.3,0-0.5-0.1c-0.2-0.1-0.4-0.3-0.4-0.6c0-0.1,0-0.1,0-0.2c0-0.5,0.4-0.9,0.9-0.9
				c0.5,0,0.9,0.4,0.9,0.9c0,0.3-0.1,0.6-0.4,0.7C76.3,56.1,76.1,56.2,75.9,56.2z M75.9,54.8c-0.3,0-0.5,0.2-0.5,0.5
				c0,0,0,0.1,0,0.1l0,0c0,0.1,0.1,0.2,0.2,0.3c0.1,0,0.2,0.1,0.3,0.1c0.1,0,0.2,0,0.3-0.1l0,0c0.1-0.1,0.2-0.2,0.2-0.4
				C76.4,55,76.2,54.8,75.9,54.8z"/>
			<path d="M80.8,54.6c-0.5,0-0.9-0.4-0.9-0.9c0-0.5,0.4-0.9,0.9-0.9s0.9,0.4,0.9,0.9C81.7,54.2,81.3,54.6,80.8,54.6z M80.8,53.2
				c-0.3,0-0.5,0.2-0.5,0.5c0,0.3,0.2,0.5,0.5,0.5s0.5-0.2,0.5-0.5C81.3,53.5,81.1,53.2,80.8,53.2z"/>
			<path d="M79.5,54.6c-0.5,0-0.9-0.4-0.9-0.9c0-0.5,0.4-0.9,0.9-0.9c0.5,0,0.9,0.4,0.9,0.9C80.4,54.2,80,54.6,79.5,54.6z
				 M79.5,53.2c-0.3,0-0.5,0.2-0.5,0.5c0,0.3,0.2,0.5,0.5,0.5S80,54,80,53.7C80,53.5,79.7,53.2,79.5,53.2z"/>
			<path d="M78.1,54.6c-0.5,0-0.9-0.4-0.9-0.9c0-0.5,0.4-0.9,0.9-0.9c0.5,0,0.9,0.4,0.9,0.9C79,54.2,78.6,54.6,78.1,54.6z
				 M78.1,53.2c-0.3,0-0.5,0.2-0.5,0.5c0,0.3,0.2,0.5,0.5,0.5c0.3,0,0.5-0.2,0.5-0.5C78.6,53.5,78.4,53.2,78.1,53.2z"/>
			<path d="M76.7,54.6c-0.2,0-0.4-0.1-0.6-0.2c-0.2-0.1-0.3-0.3-0.3-0.5l0,0c0,0,0-0.1,0-0.1c0-0.3,0.1-0.5,0.4-0.7l0,0
				c0.2-0.1,0.3-0.2,0.5-0.2c0.5,0,0.9,0.4,0.9,0.9C77.6,54.2,77.2,54.6,76.7,54.6z M76.3,53.8c0,0.2,0.2,0.4,0.5,0.4
				c0.3,0,0.5-0.2,0.5-0.5c0-0.3-0.2-0.5-0.5-0.5c-0.1,0-0.2,0-0.3,0.1C76.3,53.4,76.2,53.6,76.3,53.8
				C76.2,53.8,76.2,53.8,76.3,53.8z"/>
			<path d="M75.4,54.8c-0.5,0-0.9-0.4-0.9-0.9c0-0.2,0.1-0.4,0.2-0.6c0.2-0.2,0.4-0.3,0.6-0.3c0,0,0,0,0.1,0c0.2,0,0.4,0.1,0.6,0.2
				c0.2,0.1,0.3,0.3,0.3,0.5c0,0,0,0.1,0,0.1C76.2,54.4,75.9,54.8,75.4,54.8z M75.3,53.5L75.3,53.5c-0.1,0-0.3,0.1-0.3,0.2l0,0
				c-0.1,0.1-0.1,0.2-0.1,0.3c0,0.3,0.2,0.5,0.5,0.5c0.3,0,0.5-0.2,0.5-0.5c0,0,0-0.1,0-0.1l0,0C75.8,53.6,75.6,53.5,75.3,53.5
				C75.4,53.5,75.4,53.5,75.3,53.5z"/>
			<path d="M74.6,56.4c-0.2,0-0.4-0.1-0.5-0.2C74,56.2,74,56.1,73.9,56c-0.1-0.1-0.1-0.2-0.1-0.4c0,0,0,0,0,0l0,0
				c0-0.4,0.4-0.8,0.8-0.8c0.4,0,0.7,0.3,0.8,0.6c0,0.1,0,0.1,0,0.2c0,0.2,0,0.3-0.1,0.4C75.2,56.3,74.9,56.4,74.6,56.4z M74.2,55.6
				c0,0.1,0,0.1,0,0.2c0,0,0.1,0.1,0.1,0.1l0,0c0.1,0.1,0.2,0.1,0.3,0.1c0.1,0,0.3-0.1,0.3-0.2c0-0.1,0.1-0.1,0.1-0.2
				c0,0,0-0.1,0-0.1l0,0c0-0.2-0.2-0.3-0.4-0.3C74.4,55.2,74.2,55.4,74.2,55.6C74.2,55.6,74.2,55.6,74.2,55.6L74.2,55.6z"/>
			<path d="M73.6,56.5C73.6,56.5,73.6,56.5,73.6,56.5L73.6,56.5c-0.4,0-0.7-0.3-0.7-0.7c0-0.4,0.3-0.7,0.7-0.7
				c0.2,0,0.4,0.1,0.6,0.3c0.1,0.1,0.1,0.2,0.1,0.4c0,0,0,0.1,0,0.1c0,0.1-0.1,0.3-0.2,0.4C74,56.4,73.8,56.5,73.6,56.5z M73.6,56.1
				C73.6,56.1,73.6,56.1,73.6,56.1c0.1,0,0.2,0,0.2-0.1l0,0c0,0,0.1-0.1,0.1-0.2c0,0,0,0,0,0c0-0.1,0-0.1,0-0.1l0,0
				c-0.1-0.1-0.1-0.1-0.2-0.1c-0.1,0-0.3,0.1-0.3,0.3C73.4,56,73.5,56.1,73.6,56.1z"/>
			<path d="M74.2,55.2c-0.4,0-0.7-0.3-0.7-0.7c0-0.4,0.3-0.7,0.7-0.7c0.4,0,0.7,0.3,0.7,0.7S74.6,55.2,74.2,55.2z M74.2,54.3
				c-0.1,0-0.3,0.1-0.3,0.3c0,0.1,0.1,0.3,0.3,0.3s0.3-0.1,0.3-0.3S74.4,54.3,74.2,54.3z"/>
			<path d="M81,53.2c-0.4,0-0.7-0.3-0.7-0.7c0-0.4,0.3-0.7,0.7-0.7c0.4,0,0.7,0.3,0.7,0.7C81.7,52.9,81.4,53.2,81,53.2z M81,52.3
				c-0.1,0-0.3,0.1-0.3,0.3c0,0.1,0.1,0.3,0.3,0.3c0.1,0,0.3-0.1,0.3-0.3C81.3,52.4,81.2,52.3,81,52.3z"/>
			<path d="M79.7,53.2c-0.4,0-0.7-0.3-0.7-0.7c0-0.4,0.3-0.7,0.7-0.7c0.4,0,0.7,0.3,0.7,0.7C80.4,52.9,80.1,53.2,79.7,53.2z
				 M79.7,52.3c-0.1,0-0.3,0.1-0.3,0.3c0,0.1,0.1,0.3,0.3,0.3c0.1,0,0.3-0.1,0.3-0.3C80,52.4,79.8,52.3,79.7,52.3z"/>
			<path d="M78.4,53.2c-0.4,0-0.7-0.3-0.7-0.7c0-0.4,0.3-0.7,0.7-0.7s0.7,0.3,0.7,0.7C79.1,52.9,78.8,53.2,78.4,53.2z M78.4,52.2
				c-0.1,0-0.3,0.1-0.3,0.3c0,0.1,0.1,0.3,0.3,0.3c0.1,0,0.3-0.1,0.3-0.3C78.7,52.4,78.5,52.2,78.4,52.2z"/>
			<path d="M77.2,53.2c-0.4,0-0.7-0.3-0.7-0.7c0-0.4,0.3-0.7,0.7-0.7s0.7,0.3,0.7,0.7C77.8,52.9,77.5,53.2,77.2,53.2z M77.2,52.3
				c-0.1,0-0.3,0.1-0.3,0.3c0,0.1,0.1,0.3,0.3,0.3c0.1,0,0.3-0.1,0.3-0.3C77.4,52.4,77.3,52.3,77.2,52.3z"/>
			<path d="M76,53.5c-0.4,0-0.7-0.3-0.7-0.7c0-0.3,0.2-0.6,0.5-0.6l0,0c0.1,0,0.1,0,0.2,0c0.4,0,0.7,0.3,0.7,0.7
				c0,0.2-0.1,0.4-0.3,0.5C76.3,53.4,76.1,53.5,76,53.5z M75.9,52.5c-0.1,0-0.2,0.1-0.2,0.3c0,0.1,0.1,0.3,0.3,0.3
				c0.1,0,0.1,0,0.2,0c0.1,0,0.1-0.1,0.1-0.2C76.3,52.6,76.2,52.5,75.9,52.5C76,52.5,76,52.5,75.9,52.5z"/>
			<path d="M74.9,53.7C74.9,53.7,74.9,53.7,74.9,53.7c-0.4-0.1-0.7-0.3-0.7-0.7c0-0.4,0.3-0.7,0.7-0.7l0,0c0.2,0,0.3,0.1,0.5,0.2
				c0.1,0.1,0.2,0.3,0.2,0.5c0,0.1,0,0.3-0.1,0.4C75.4,53.6,75.2,53.7,74.9,53.7z M74.9,52.7c-0.1,0-0.3,0.1-0.3,0.3
				c0,0.1,0.1,0.2,0.2,0.3l0,0c0,0,0,0,0,0c0.1,0,0.2,0,0.2-0.1c0,0,0-0.1,0-0.1c0-0.1,0-0.1-0.1-0.2C75.1,52.8,75,52.7,74.9,52.7
				L74.9,52.7z"/>
			<path d="M74,54.3c-0.4,0-0.7-0.3-0.7-0.7c0-0.4,0.3-0.7,0.7-0.7s0.7,0.3,0.7,0.7C74.7,54,74.4,54.3,74,54.3z M74,53.3
				c-0.1,0-0.3,0.1-0.3,0.3c0,0.1,0.1,0.3,0.3,0.3c0.1,0,0.3-0.1,0.3-0.3C74.3,53.4,74.1,53.3,74,53.3z"/>
			<path d="M73.2,54.8c-0.2,0-0.3-0.1-0.5-0.2c-0.1-0.1-0.2-0.3-0.2-0.5c0-0.4,0.3-0.7,0.7-0.7s0.7,0.3,0.7,0.7
				c0,0.2-0.1,0.4-0.3,0.6l0,0C73.5,54.8,73.3,54.8,73.2,54.8z M73.2,53.9c-0.1,0-0.3,0.1-0.3,0.3c0,0.1,0,0.1,0.1,0.2
				c0,0.1,0.1,0.1,0.2,0.1c0.1,0,0.1,0,0.1,0c0.1-0.1,0.1-0.1,0.1-0.2C73.5,54,73.3,53.9,73.2,53.9z"/>
			<path d="M73.1,55.6c-0.4,0-0.7-0.3-0.7-0.7c0-0.2,0.1-0.4,0.3-0.6l0,0c0.1-0.1,0.2-0.1,0.4-0.1c0.2,0,0.3,0.1,0.5,0.2
				c0.1,0.1,0.2,0.3,0.2,0.5C73.8,55.3,73.5,55.6,73.1,55.6z M73,54.7c-0.1,0.1-0.1,0.1-0.1,0.2c0,0.1,0.1,0.3,0.3,0.3
				s0.3-0.1,0.3-0.3c0-0.1,0-0.1-0.1-0.2l0,0c0-0.1-0.1-0.1-0.2-0.1C73.1,54.6,73,54.6,73,54.7z"/>
			<path d="M72.3,56.1c-0.4,0-0.7-0.3-0.7-0.7s0.3-0.7,0.7-0.7c0.4,0,0.7,0.3,0.7,0.7c0,0.2-0.1,0.3-0.2,0.5l0,0
				c-0.1,0.1-0.2,0.1-0.3,0.2l0,0C72.4,56.1,72.3,56.1,72.3,56.1z M72.3,55.2c-0.1,0-0.3,0.1-0.3,0.3s0.1,0.3,0.3,0.3c0,0,0,0,0.1,0
				c0,0,0.1,0,0.1-0.1c0.1-0.1,0.1-0.1,0.1-0.2C72.5,55.3,72.4,55.2,72.3,55.2z"/>
			<path d="M72.7,56.9c-0.2,0-0.3-0.1-0.5-0.2c-0.1-0.1-0.2-0.3-0.2-0.5c0-0.2,0.1-0.4,0.2-0.5c0.1-0.1,0.2-0.1,0.3-0.2
				c0,0,0.1,0,0.1,0c0.4,0,0.7,0.3,0.7,0.7c0,0.2-0.1,0.3-0.2,0.5l0,0c-0.1,0.1-0.1,0.1-0.2,0.1C72.9,56.9,72.8,56.9,72.7,56.9z
				 M72.7,56C72.7,56,72.7,56,72.7,56L72.7,56c-0.1,0-0.2,0-0.2,0.1l0,0c-0.1,0.1-0.1,0.1-0.1,0.2c0,0.1,0,0.1,0.1,0.2l0,0
				c0.1,0.1,0.1,0.1,0.2,0.1c0,0,0.1,0,0.1,0c0,0,0,0,0.1-0.1c0-0.1,0.1-0.1,0.1-0.2C73,56.1,72.8,56,72.7,56z"/>
			<path d="M72,57.6c-0.4,0-0.7-0.3-0.7-0.7c0-0.4,0.3-0.7,0.7-0.7c0.1,0,0.3,0,0.4,0.1c0.2,0.1,0.3,0.3,0.3,0.5c0,0.1,0,0.1,0,0.2
				l0,0c0,0.1-0.1,0.2-0.1,0.2C72.4,57.6,72.2,57.6,72,57.6z M72,56.7c-0.1,0-0.3,0.1-0.3,0.3c0,0.1,0.1,0.3,0.3,0.3
				c0.1,0,0.1,0,0.2-0.1c0,0,0-0.1,0.1-0.1c0,0,0-0.1,0-0.1l0,0c0-0.1,0-0.2-0.1-0.2l0,0C72.2,56.7,72.1,56.7,72,56.7z"/>
			<path d="M71.7,58.6c-0.4,0-0.7-0.3-0.7-0.7s0.3-0.7,0.7-0.7s0.7,0.3,0.7,0.7c0,0,0,0.1,0,0.1C72.3,58.3,72,58.6,71.7,58.6
				C71.7,58.6,71.7,58.6,71.7,58.6z M71.7,57.6c-0.1,0-0.3,0.1-0.3,0.3s0.1,0.3,0.3,0.3c0,0,0,0,0,0l0,0c0.1,0,0.2-0.1,0.2-0.2l0,0
				c0,0,0,0,0,0C72,57.8,71.8,57.6,71.7,57.6z"/>
			<path d="M71.8,59.7c-0.4,0-0.7-0.3-0.7-0.7c0-0.4,0.3-0.7,0.7-0.7c0,0,0,0,0.1,0c0.2,0,0.3,0.1,0.5,0.2c0.2,0.1,0.3,0.4,0.3,0.6
				c0,0.2-0.1,0.4-0.3,0.6C72.1,59.6,72,59.6,71.8,59.7C71.8,59.7,71.8,59.7,71.8,59.7z M71.8,58.6C71.7,58.6,71.7,58.6,71.8,58.6
				L71.8,58.6c-0.2,0-0.3,0.2-0.3,0.3c0,0.2,0.2,0.3,0.3,0.3c0,0,0,0,0,0c0.1,0,0.1,0,0.2-0.1c0.1-0.1,0.1-0.2,0.1-0.3
				c0-0.1,0-0.2-0.1-0.3C71.9,58.6,71.8,58.6,71.8,58.6z"/>
			<path d="M71.9,60.7c-0.4,0-0.7-0.3-0.7-0.7c0-0.4,0.3-0.7,0.6-0.7l0,0c0,0,0.1,0,0.1,0c0.1,0,0.2,0,0.3,0
				c0.3,0.1,0.5,0.4,0.5,0.7c0,0.3-0.1,0.5-0.4,0.7C72.1,60.7,72,60.7,71.9,60.7z M71.9,59.7c-0.2,0-0.3,0.2-0.3,0.3
				c0,0.2,0.2,0.3,0.3,0.3c0.1,0,0.1,0,0.2,0c0.1-0.1,0.2-0.2,0.2-0.3c0-0.1-0.1-0.3-0.2-0.3C72,59.7,71.9,59.7,71.9,59.7L71.9,59.7
				C71.9,59.7,71.9,59.7,71.9,59.7z"/>
			<path d="M72.1,61.8c-0.4,0-0.7-0.3-0.7-0.7s0.3-0.7,0.7-0.7c0,0,0,0,0.1,0c0.4,0,0.7,0.4,0.7,0.7c0,0.4-0.3,0.7-0.6,0.7
				C72.2,61.8,72.2,61.8,72.1,61.8z M72.1,60.7c-0.2,0-0.3,0.2-0.3,0.3c0,0.2,0.2,0.3,0.3,0.3c0,0,0,0,0.1,0c0.2,0,0.3-0.2,0.3-0.3
				C72.5,60.9,72.3,60.8,72.1,60.7L72.1,60.7C72.1,60.7,72.1,60.7,72.1,60.7z"/>
			<path d="M72.2,63.3L72.2,63.3c-0.2,0-0.3,0-0.5-0.1c-0.2-0.2-0.4-0.4-0.4-0.7c0-0.4,0.4-0.8,0.8-0.8c0,0,0,0,0,0l0,0
				c0.4,0,0.8,0.4,0.8,0.8C73,62.9,72.6,63.3,72.2,63.3L72.2,63.3z M72.2,62c-0.2,0-0.4,0.2-0.4,0.4c0,0.1,0.1,0.3,0.2,0.3
				c0.1,0,0.1,0.1,0.2,0.1h0c0.2,0,0.4-0.2,0.4-0.4C72.6,62.2,72.4,62.1,72.2,62C72.2,62,72.2,62,72.2,62L72.2,62z"/>
			<path d="M80.9,50.4c-0.4,0-0.7-0.3-0.7-0.7c0-0.4,0.3-0.7,0.7-0.7s0.7,0.3,0.7,0.7C81.6,50.1,81.3,50.4,80.9,50.4z M80.9,49.4
				c-0.1,0-0.3,0.1-0.3,0.3c0,0.1,0.1,0.3,0.3,0.3c0.1,0,0.3-0.1,0.3-0.3C81.2,49.6,81.1,49.4,80.9,49.4z"/>
			<path d="M79.7,50.7c-0.4,0-0.7-0.3-0.7-0.7c0-0.4,0.3-0.7,0.7-0.7s0.7,0.3,0.7,0.7C80.4,50.4,80.1,50.7,79.7,50.7z M79.7,49.8
				c-0.1,0-0.3,0.1-0.3,0.3c0,0.1,0.1,0.3,0.3,0.3c0.1,0,0.3-0.1,0.3-0.3C80,49.9,79.9,49.8,79.7,49.8z"/>
			<path d="M78.6,51c-0.4,0-0.7-0.3-0.7-0.7c0-0.4,0.3-0.7,0.7-0.7c0.4,0,0.7,0.3,0.7,0.7C79.2,50.7,78.9,51,78.6,51z M78.6,50.1
				c-0.1,0-0.3,0.1-0.3,0.3c0,0.1,0.1,0.3,0.3,0.3c0.1,0,0.3-0.1,0.3-0.3C78.8,50.2,78.7,50.1,78.6,50.1z"/>
			<path d="M77.5,51.5c0,0-0.1,0-0.1,0c-0.3-0.1-0.5-0.3-0.5-0.7c0-0.4,0.3-0.7,0.7-0.7s0.7,0.3,0.7,0.7c0,0.2-0.1,0.5-0.3,0.6l0,0
				C77.8,51.5,77.6,51.5,77.5,51.5z M77.5,50.6c-0.1,0-0.3,0.1-0.3,0.3c0,0.1,0.1,0.2,0.2,0.3l0,0c0,0,0,0,0,0c0,0,0.1,0,0.1,0
				c0.1,0,0.1-0.1,0.1-0.2C77.8,50.7,77.7,50.6,77.5,50.6z"/>
			<path d="M76.7,52c-0.4,0-0.7-0.3-0.7-0.7c0-0.4,0.3-0.7,0.7-0.7s0.7,0.3,0.7,0.7C77.3,51.7,77,52,76.7,52z M76.7,51.1
				c-0.1,0-0.3,0.1-0.3,0.3c0,0.1,0.1,0.3,0.3,0.3s0.3-0.1,0.3-0.3C76.9,51.2,76.8,51.1,76.7,51.1z"/>
			<path d="M75.8,52.5c-0.1,0-0.3,0-0.4-0.1c-0.1-0.1-0.1-0.1-0.2-0.2c-0.1-0.1-0.1-0.2-0.1-0.3c0-0.4,0.3-0.7,0.7-0.7
				c0.4,0,0.7,0.3,0.7,0.7c0,0.3-0.2,0.6-0.5,0.7l0,0C75.9,52.5,75.8,52.5,75.8,52.5z M75.8,51.6c-0.1,0-0.3,0.1-0.3,0.3
				c0,0,0,0.1,0,0.1c0,0,0,0.1,0.1,0.1c0,0,0.1,0.1,0.2,0.1c0,0,0,0,0,0c0.1,0,0.2-0.1,0.2-0.3C76.1,51.7,75.9,51.6,75.8,51.6z"/>
			<path d="M75.2,52.9c-0.2,0-0.3-0.1-0.4-0.2c-0.1-0.1-0.1-0.2-0.1-0.3c0-0.3,0.2-0.5,0.5-0.5c0.1,0,0.2,0,0.3,0.1l0,0
				c0.1,0.1,0.2,0.1,0.2,0.2c0,0.1,0,0.1,0,0.2C75.7,52.6,75.5,52.8,75.2,52.9L75.2,52.9C75.3,52.9,75.2,52.9,75.2,52.9z M75.2,52.2
				c-0.1,0-0.1,0.1-0.1,0.1c0,0,0,0,0,0.1c0,0,0.1,0.1,0.1,0.1c0,0,0,0,0,0c0.1,0,0.1-0.1,0.1-0.1c0,0,0,0,0,0l0,0
				C75.3,52.3,75.3,52.3,75.2,52.2C75.3,52.2,75.2,52.2,75.2,52.2z"/>
			<path d="M77.7,52.4c-0.4,0-0.7-0.3-0.7-0.7c0-0.2,0.1-0.5,0.3-0.6l0,0c0.1-0.1,0.2-0.1,0.3-0.1l0,0c0,0,0.1,0,0.1,0
				c0.3,0.1,0.5,0.3,0.5,0.7C78.3,52.1,78,52.4,77.7,52.4z M77.5,51.5c-0.1,0-0.1,0.1-0.1,0.2c0,0.1,0.1,0.3,0.3,0.3
				c0.1,0,0.3-0.1,0.3-0.3c0-0.1-0.1-0.2-0.2-0.3l0,0c0,0,0,0,0,0C77.6,51.4,77.6,51.5,77.5,51.5z"/>
			<path d="M78.7,52.1c-0.4,0-0.7-0.3-0.7-0.7c0-0.4,0.3-0.7,0.7-0.7s0.7,0.3,0.7,0.7C79.3,51.8,79,52.1,78.7,52.1z M78.7,51.2
				c-0.1,0-0.3,0.1-0.3,0.3c0,0.1,0.1,0.3,0.3,0.3s0.3-0.1,0.3-0.3C79,51.3,78.8,51.2,78.7,51.2z"/>
			<path d="M79.6,52c-0.4,0-0.7-0.3-0.7-0.7s0.3-0.7,0.7-0.7c0.2,0,0.5,0.1,0.6,0.3c0,0,0.1,0.1,0.1,0.2l0,0c0,0.1,0,0.1,0,0.2
				C80.3,51.7,80,52,79.6,52z M79.6,51.1c-0.1,0-0.3,0.1-0.3,0.3s0.1,0.3,0.3,0.3c0.1,0,0.3-0.1,0.3-0.3c0,0,0,0,0-0.1
				c0,0,0,0,0-0.1l0,0C79.8,51.2,79.7,51.1,79.6,51.1z"/>
		</g>
	</g>
	<path d="M76.6,89.3c-0.1,0-0.2-0.1-0.2-0.2s0.1-0.2,0.2-0.2c0.8,0,1.4-0.1,2-0.3c0.5-0.2,0.9-0.4,1.3-0.8c0.6-0.5,0.8-1.1,0.8-1.1
		c0-0.1,0.2-0.2,0.3-0.1c0.1,0,0.2,0.2,0.1,0.3c0,0-0.3,0.6-1,1.2c-0.4,0.4-0.9,0.6-1.4,0.8C78.1,89.2,77.4,89.3,76.6,89.3z"/>
	<path d="M86.5,89.3c-0.9,0-1.8-0.1-2.5-0.4c-0.6-0.2-1.1-0.5-1.5-0.8c-0.7-0.6-0.8-1.3-0.8-1.3c0-0.1,0-0.2,0.2-0.3
		c0.1,0,0.2,0,0.3,0.2c0,0,0.1,0.5,0.7,1.1c0.3,0.3,0.8,0.6,1.3,0.7c0.7,0.2,1.4,0.3,2.3,0.3c0.1,0,0.2,0.1,0.2,0.2
		S86.6,89.3,86.5,89.3z"/>
</g>
<g>
	<g>
		<g>
			<g>
				<path class="st23" d="M153.1,108.1c0,0,14.8,1.8,26.3-8.9c2.6-2.5-8.4-9.7-8.4-9.7"/>
				<path d="M155.6,108.5c-1.6,0-2.5-0.1-2.5-0.1l0.1-0.5c0,0,3.7,0.4,8.8-0.4c4.6-0.8,11.4-2.9,17.3-8.3c0.2-0.2,0.4-0.5,0.3-0.9
					c-0.1-1.2-1.6-3-4.4-5.3c-2.1-1.8-4.2-3.2-4.3-3.2l0.3-0.4c0,0,2.2,1.4,4.3,3.2c2.9,2.4,4.5,4.3,4.6,5.6c0,0.5-0.1,0.9-0.5,1.3
					c-6,5.5-12.8,7.7-17.6,8.5C159.4,108.4,157.2,108.5,155.6,108.5z"/>
			</g>
			<g>
				<path class="st24" d="M170.4,90C170.4,89.9,170.4,89.9,170.4,90c0-0.1-4.4,11.4-11.6,18.1c-0.3,0.3-5.7,0-5.7,0
					s3.2-10.2,3.8-11.4c0.3-0.5-0.7-2-0.7-2"/>
				<path d="M157.1,108.4c-0.4,0-0.8,0-1.4,0c-1.4,0-2.7-0.1-2.8-0.1l-0.3,0l0.1-0.3c0.1-0.4,3.2-10.2,3.9-11.4
					c0.1-0.2-0.3-1-0.7-1.8l0.4-0.3c0.3,0.5,1.1,1.8,0.8,2.3c-0.6,1.1-3.2,9.3-3.7,11c2.4,0.1,4.8,0.2,5.2,0
					c6.8-6.3,11.2-17,11.6-18l0-0.1l0.5,0.2c0,0,0,0,0,0.1l0,0c-0.4,1.1-4.9,11.9-11.7,18.2C158.8,108.3,158.7,108.4,157.1,108.4z
					 M158.6,107.8L158.6,107.8L158.6,107.8z"/>
			</g>
			<g id="XMLID_1_">
				<g>
					<path class="st23" d="M165.9,69.4c1.6-0.1,6.1-2.7,6.1-2.7c-1.8-2.7-4.9-5-10.8-1.1c1.7-2.4,3.9-5.1,6.5-5.6
						c9.5-1.8,8,2.7,8.1,13c0.1,10.4-3,8.6-3,8.6s0.3,4.8-0.3,6.6s-21.3,9.9-19.4,4.4c2.7-7.6,0.9-9.8,2-10.5c0.4-0.3,0.6-0.6,0.7-1
						c0.1,0,1.8,0,2.7-0.3c3-0.8,4-1.8,4.5-3.3c0.5-1.7-0.6-3.3-0.6-3.3L165.9,69.4C165.9,69.4,165.9,69.4,165.9,69.4z"/>
					<path class="st24" d="M172,66.7c0,0-4.5,2.6-6.1,2.7c0-2-1.6-2.7-3.1-1.7c0,0-0.1,0.9-2.5,3.6c0,0-1.4-2.1-0.7-3.2
						c0.5-0.7,1-1.5,1.6-2.3C167.1,61.7,170.2,64,172,66.7z"/>
					<path class="st25" d="M162.8,67.6c1.5-0.9,3.1-0.3,3.1,1.7c0,0,0,0,0,0l-3.4,5.1c0,0,1,1.6,0.6,3.3c-2.7-2.9-8.8-1.4-8.8-1.4
						c0.1-0.8,0.8-1.4,2.4-2.2c3.2-1.7,3.8-2.9,3.8-2.9C162.7,68.5,162.8,67.6,162.8,67.6z"/>
					<path class="st24" d="M163,77.7c-0.5,1.5-1.5,2.5-4.5,3.3c-0.9,0.2-2.6,0.3-2.7,0.3c0.2-0.7,0.2-1.3,0.2-1.3
						c-1.3-1.8-1.9-2.9-1.9-3.7C154.2,76.3,160.3,74.8,163,77.7z"/>
				</g>
				<g>
					<path d="M155.2,94.9c-1.1,0-1.8-0.2-2.2-0.6c-0.4-0.4-0.4-1-0.2-1.6c1.7-4.7,1.6-7.3,1.6-8.8c0-1,0-1.5,0.5-1.9
						c0.3-0.2,0.5-0.5,0.6-0.8c0.2-0.5,0.2-0.9,0.2-1.1c-1.2-1.7-2-2.9-1.9-3.8l0-0.2l0,0c0.2-0.8,1.1-1.4,2.5-2.2
						c2.5-1.3,3.3-2.3,3.5-2.6c-0.3-0.5-1.3-2.3-0.6-3.4l0.2-0.3c0.4-0.6,0.9-1.3,1.4-2c1.5-2.2,3.9-5.1,6.7-5.7
						c3.5-0.7,5.6-0.5,6.8,0.5c1.8,1.5,1.7,4.5,1.7,9.1c0,1.1,0,2.4,0,3.7c0,5-0.6,8-2,8.8c-0.3,0.2-0.7,0.2-0.9,0.2
						c0,1.2,0.1,4.8-0.3,6.3c-0.2,0.9-3.3,2.3-5,3c-3,1.3-6.3,2.4-8.9,3C157.4,94.8,156.2,94.9,155.2,94.9z M156.1,81.6
						c-0.2,0.4-0.4,0.7-0.8,0.9c-0.2,0.2-0.2,0.5-0.2,1.4c0,1.5,0.1,4.2-1.6,9c-0.2,0.7,0,0.9,0,1c0.5,0.6,2.3,0.6,4.9,0
						c2.6-0.6,5.9-1.7,9-2.9c3.4-1.4,4.8-2.4,4.9-2.7c0.5-1.7,0.2-6.5,0.2-6.5l0-0.6l0.5,0.3c0,0,0.4,0.2,0.8-0.1
						c0.7-0.4,1.8-2,1.7-8.3c0-1.3,0-2.6,0-3.7c0.1-4.4,0.1-7.3-1.4-8.6c-1.1-0.9-3-1-6.3-0.4c-2.6,0.5-4.8,3.3-6.3,5.4
						c-0.5,0.7-0.9,1.4-1.3,2l-0.2,0.3c-0.5,0.8,0.3,2.4,0.7,2.9l0.1,0.1l-0.1,0.2c-0.2,0.5-1.3,1.7-3.9,3.1
						c-1.2,0.6-1.8,1.1-2.1,1.5c1.6-0.3,6.3-0.9,8.6,1.6l0.1,0.1l-0.1,0.2c-0.6,1.8-1.9,2.8-4.7,3.5
						C157.8,81.5,156.6,81.5,156.1,81.6z M154.5,76.5c0.1,0.7,0.8,1.7,1.8,3.2l0.1,0.1l0,0.1c0,0,0,0.5-0.1,1c0.6,0,1.6-0.1,2.2-0.3
						c2.8-0.7,3.8-1.7,4.2-2.9C160.4,75.5,155.6,76.3,154.5,76.5z"/>
					<path d="M163.3,77.8l-0.6-0.2c0.4-1.5-0.5-3-0.5-3l-0.1-0.2l3.6-5.4h0.2c1.2-0.1,4.3-1.7,5.7-2.5c-2.4-3.4-5.8-3.7-10.2-0.7
						l-0.1,0.1l-0.1,0v-0.3l-0.2-0.2l0.1,0l0,0c4.8-3.2,8.6-2.8,11.2,1.2l0.2,0.3l-0.3,0.2c-0.2,0.1-4.3,2.5-6.1,2.7l-3.2,4.8
						C163.1,74.9,163.7,76.3,163.3,77.8z"/>
					<path d="M160.5,71.4l-0.5-0.4c2.1-2.4,2.4-3.3,2.4-3.4l0-0.2l0.1-0.1c0.9-0.5,1.8-0.6,2.5-0.2c0.7,0.4,1.1,1.2,1.1,2.2
						c0,0,0,0.1,0,0.1l-0.6,0c0,0,0,0,0-0.1c0-0.8-0.2-1.4-0.7-1.7c-0.5-0.3-1.1-0.2-1.8,0.1C162.9,68.2,162.4,69.2,160.5,71.4z"/>
				</g>
			</g>
			<g id="XMLID_2_">
				<g>
				</g>
				<g>
				</g>
			</g>
			<path class="st26" d="M170.4,89.9"/>
			<path class="st27" d="M159.8,107.1c-0.1,0.1-0.2,0.2-0.3,0.2"/>
			<path class="st27" d="M159.8,107.1"/>
		</g>
		<g>
			<path class="st5" d="M179,114h-27c-3.3,0-6-2.7-6-6v0c0-3.3,2.7-6,6-6h27c3.3,0,6,2.7,6,6v0C185,111.3,182.3,114,179,114z"/>
			<g>
				<path d="M160.9,103.7v1.2h-2.6v2.5c0.1-0.1,0.3-0.2,0.5-0.3c0.2-0.1,0.4-0.1,0.6-0.1c0.5,0,0.8,0.1,1.1,0.4
					c0.3,0.3,0.4,0.7,0.4,1.2v2.4c0,0.3-0.1,0.6-0.2,0.8c-0.1,0.2-0.3,0.5-0.4,0.6s-0.4,0.3-0.6,0.4c-0.2,0.1-0.5,0.1-0.7,0.1
					c-0.3,0-0.5,0-0.7-0.1c-0.2-0.1-0.4-0.2-0.6-0.4s-0.3-0.4-0.4-0.6c-0.1-0.2-0.2-0.5-0.2-0.8v-0.4h1.3v0.3c0,0.2,0.1,0.4,0.2,0.5
					c0.1,0.1,0.3,0.2,0.5,0.2s0.4-0.1,0.5-0.2c0.1-0.1,0.2-0.3,0.2-0.5v-2.2c0-0.2-0.1-0.3-0.2-0.5c-0.1-0.1-0.3-0.2-0.4-0.2
					c-0.1,0-0.2,0-0.3,0.1c-0.1,0-0.1,0.1-0.2,0.1c-0.1,0.1-0.1,0.1-0.1,0.2c0,0.1-0.1,0.1-0.1,0.1h-1.2v-5H160.9z"/>
				<path d="M161.8,105.7c0-0.3,0.1-0.6,0.2-0.8s0.3-0.5,0.4-0.6s0.4-0.3,0.6-0.4c0.2-0.1,0.5-0.1,0.7-0.1c0.3,0,0.5,0,0.7,0.1
					c0.2,0.1,0.4,0.2,0.6,0.4s0.3,0.4,0.4,0.6s0.2,0.5,0.2,0.8v5.4c0,0.3-0.1,0.6-0.2,0.8c-0.1,0.2-0.3,0.5-0.4,0.6
					s-0.4,0.3-0.6,0.4c-0.2,0.1-0.5,0.1-0.7,0.1c-0.3,0-0.5,0-0.7-0.1c-0.2-0.1-0.4-0.2-0.6-0.4s-0.3-0.4-0.4-0.6
					c-0.1-0.2-0.2-0.5-0.2-0.8V105.7z M163.1,111.1c0,0.2,0.1,0.3,0.2,0.5c0.1,0.1,0.3,0.2,0.5,0.2c0.2,0,0.3-0.1,0.5-0.2
					c0.1-0.1,0.2-0.3,0.2-0.5v-5.4c0-0.2-0.1-0.3-0.2-0.5c-0.1-0.1-0.3-0.2-0.5-0.2c-0.2,0-0.3,0.1-0.5,0.2
					c-0.1,0.1-0.2,0.3-0.2,0.5V111.1z"/>
				<path d="M166.6,105.7c0-0.3,0.1-0.6,0.2-0.8s0.3-0.5,0.4-0.6s0.4-0.3,0.6-0.4c0.2-0.1,0.5-0.1,0.7-0.1c0.3,0,0.5,0,0.7,0.1
					c0.2,0.1,0.4,0.2,0.6,0.4s0.3,0.4,0.4,0.6s0.2,0.5,0.2,0.8v5.4c0,0.3-0.1,0.6-0.2,0.8c-0.1,0.2-0.3,0.5-0.4,0.6
					s-0.4,0.3-0.6,0.4c-0.2,0.1-0.5,0.1-0.7,0.1c-0.3,0-0.5,0-0.7-0.1c-0.2-0.1-0.4-0.2-0.6-0.4s-0.3-0.4-0.4-0.6
					c-0.1-0.2-0.2-0.5-0.2-0.8V105.7z M167.9,111.1c0,0.2,0.1,0.3,0.2,0.5c0.1,0.1,0.3,0.2,0.5,0.2c0.2,0,0.3-0.1,0.5-0.2
					c0.1-0.1,0.2-0.3,0.2-0.5v-5.4c0-0.2-0.1-0.3-0.2-0.5c-0.1-0.1-0.3-0.2-0.5-0.2c-0.2,0-0.3,0.1-0.5,0.2
					c-0.1,0.1-0.2,0.3-0.2,0.5V111.1z"/>
				<path d="M171.4,105.7c0-0.3,0.1-0.6,0.2-0.8s0.3-0.5,0.4-0.6s0.4-0.3,0.6-0.4c0.2-0.1,0.5-0.1,0.7-0.1c0.3,0,0.5,0,0.7,0.1
					c0.2,0.1,0.4,0.2,0.6,0.4s0.3,0.4,0.4,0.6s0.2,0.5,0.2,0.8v5.4c0,0.3-0.1,0.6-0.2,0.8c-0.1,0.2-0.3,0.5-0.4,0.6
					s-0.4,0.3-0.6,0.4c-0.2,0.1-0.5,0.1-0.7,0.1c-0.3,0-0.5,0-0.7-0.1c-0.2-0.1-0.4-0.2-0.6-0.4s-0.3-0.4-0.4-0.6
					c-0.1-0.2-0.2-0.5-0.2-0.8V105.7z M172.8,111.1c0,0.2,0.1,0.3,0.2,0.5c0.1,0.1,0.3,0.2,0.5,0.2c0.2,0,0.3-0.1,0.5-0.2
					c0.1-0.1,0.2-0.3,0.2-0.5v-5.4c0-0.2-0.1-0.3-0.2-0.5c-0.1-0.1-0.3-0.2-0.5-0.2c-0.2,0-0.3,0.1-0.5,0.2
					c-0.1,0.1-0.2,0.3-0.2,0.5V111.1z"/>
			</g>
		</g>
	</g>
	<g>
		<path class="st5" d="M262,114h-27c-3.3,0-6-2.7-6-6v0c0-3.3,2.7-6,6-6h27c3.3,0,6,2.7,6,6v0C268,111.3,265.3,114,262,114z"/>
		<g>
			<path d="M243.5,113v-7.9l-1.3,1v-1.4l1.3-1h1.3v9.3H243.5z"/>
			<path d="M250.7,103.7v1.2h-2.6v2.5c0.1-0.1,0.3-0.2,0.5-0.3c0.2-0.1,0.4-0.1,0.6-0.1c0.5,0,0.8,0.1,1.1,0.4
				c0.3,0.3,0.4,0.7,0.4,1.2v2.4c0,0.3-0.1,0.6-0.2,0.8c-0.1,0.2-0.3,0.5-0.4,0.6s-0.4,0.3-0.6,0.4c-0.2,0.1-0.5,0.1-0.7,0.1
				s-0.5,0-0.7-0.1c-0.2-0.1-0.4-0.2-0.6-0.4s-0.3-0.4-0.4-0.6c-0.1-0.2-0.2-0.5-0.2-0.8v-0.4h1.3v0.3c0,0.2,0.1,0.4,0.2,0.5
				c0.1,0.1,0.3,0.2,0.5,0.2c0.2,0,0.4-0.1,0.5-0.2c0.1-0.1,0.2-0.3,0.2-0.5v-2.2c0-0.2-0.1-0.3-0.2-0.5c-0.1-0.1-0.3-0.2-0.4-0.2
				c-0.1,0-0.2,0-0.3,0.1s-0.1,0.1-0.2,0.1c-0.1,0.1-0.1,0.1-0.1,0.2c0,0.1-0.1,0.1-0.1,0.1h-1.2v-5H250.7z"/>
			<path d="M251.6,105.7c0-0.3,0.1-0.6,0.2-0.8s0.3-0.5,0.4-0.6s0.4-0.3,0.6-0.4c0.2-0.1,0.5-0.1,0.7-0.1s0.5,0,0.7,0.1
				c0.2,0.1,0.4,0.2,0.6,0.4s0.3,0.4,0.4,0.6s0.2,0.5,0.2,0.8v5.4c0,0.3-0.1,0.6-0.2,0.8c-0.1,0.2-0.3,0.5-0.4,0.6s-0.4,0.3-0.6,0.4
				c-0.2,0.1-0.5,0.1-0.7,0.1s-0.5,0-0.7-0.1c-0.2-0.1-0.4-0.2-0.6-0.4s-0.3-0.4-0.4-0.6c-0.1-0.2-0.2-0.5-0.2-0.8V105.7z
				 M252.9,111.1c0,0.2,0.1,0.3,0.2,0.5c0.1,0.1,0.3,0.2,0.5,0.2s0.3-0.1,0.5-0.2c0.1-0.1,0.2-0.3,0.2-0.5v-5.4
				c0-0.2-0.1-0.3-0.2-0.5s-0.3-0.2-0.5-0.2s-0.3,0.1-0.5,0.2c-0.1,0.1-0.2,0.3-0.2,0.5V111.1z"/>
		</g>
	</g>
	<g>
		<path class="st5" d="M96,114H69c-3.3,0-6-2.7-6-6v0c0-3.3,2.7-6,6-6h27c3.3,0,6,2.7,6,6v0C102,111.3,99.3,114,96,114z"/>
		<g>
			<path d="M74.4,113l1.5-3.9l0,0c0,0-0.1,0.1-0.2,0.1c-0.1,0-0.2,0-0.4,0c-0.2,0-0.5-0.1-0.6-0.2c-0.2-0.1-0.4-0.3-0.5-0.4
				c-0.1-0.1-0.1-0.2-0.1-0.3c0-0.1-0.1-0.2-0.1-0.4c0-0.2,0-0.4-0.1-0.6s0-0.5,0-0.9c0-0.3,0-0.6,0-0.7c0-0.2,0-0.4,0.1-0.5
				c0-0.1,0-0.2,0.1-0.3c0-0.1,0.1-0.2,0.1-0.3c0.2-0.3,0.4-0.5,0.7-0.7c0.3-0.2,0.6-0.2,1-0.2s0.7,0.1,1,0.2
				c0.3,0.2,0.5,0.4,0.7,0.7c0.1,0.1,0.1,0.2,0.2,0.3c0,0.1,0.1,0.2,0.1,0.3c0,0.1,0,0.3,0,0.5c0,0.2,0,0.4,0,0.7c0,0.3,0,0.5,0,0.7
				c0,0.2,0,0.3,0,0.5c0,0.1-0.1,0.3-0.1,0.4c0,0.1-0.1,0.2-0.1,0.3l-1.7,4.7H74.4z M75.3,107.4c0,0.2,0.1,0.4,0.2,0.5
				c0.1,0.1,0.3,0.2,0.5,0.2c0.2,0,0.3-0.1,0.5-0.2c0.1-0.1,0.2-0.3,0.2-0.5v-1.7c0-0.2-0.1-0.4-0.2-0.5c-0.1-0.1-0.3-0.2-0.5-0.2
				c-0.2,0-0.3,0.1-0.5,0.2c-0.1,0.1-0.2,0.3-0.2,0.5V107.4z"/>
			<path d="M79.3,113l1.5-3.9l0,0c0,0-0.1,0.1-0.2,0.1c-0.1,0-0.2,0-0.4,0c-0.2,0-0.5-0.1-0.6-0.2c-0.2-0.1-0.4-0.3-0.5-0.4
				c-0.1-0.1-0.1-0.2-0.1-0.3c0-0.1-0.1-0.2-0.1-0.4c0-0.2,0-0.4-0.1-0.6s0-0.5,0-0.9c0-0.3,0-0.6,0-0.7c0-0.2,0-0.4,0.1-0.5
				c0-0.1,0-0.2,0.1-0.3c0-0.1,0.1-0.2,0.1-0.3c0.2-0.3,0.4-0.5,0.7-0.7c0.3-0.2,0.6-0.2,1-0.2s0.7,0.1,1,0.2
				c0.3,0.2,0.5,0.4,0.7,0.7c0.1,0.1,0.1,0.2,0.2,0.3c0,0.1,0.1,0.2,0.1,0.3c0,0.1,0,0.3,0,0.5c0,0.2,0,0.4,0,0.7c0,0.3,0,0.5,0,0.7
				c0,0.2,0,0.3,0,0.5c0,0.1-0.1,0.3-0.1,0.4c0,0.1-0.1,0.2-0.1,0.3l-1.7,4.7H79.3z M80.1,107.4c0,0.2,0.1,0.4,0.2,0.5
				c0.1,0.1,0.3,0.2,0.5,0.2c0.2,0,0.3-0.1,0.5-0.2c0.1-0.1,0.2-0.3,0.2-0.5v-1.7c0-0.2-0.1-0.4-0.2-0.5c-0.1-0.1-0.3-0.2-0.5-0.2
				c-0.2,0-0.3,0.1-0.5,0.2c-0.1,0.1-0.2,0.3-0.2,0.5V107.4z"/>
			<path d="M84.1,113l1.5-3.9l0,0c0,0-0.1,0.1-0.2,0.1c-0.1,0-0.2,0-0.4,0c-0.2,0-0.5-0.1-0.6-0.2c-0.2-0.1-0.4-0.3-0.5-0.4
				c-0.1-0.1-0.1-0.2-0.1-0.3c0-0.1-0.1-0.2-0.1-0.4c0-0.2,0-0.4-0.1-0.6s0-0.5,0-0.9c0-0.3,0-0.6,0-0.7c0-0.2,0-0.4,0.1-0.5
				c0-0.1,0-0.2,0.1-0.3c0-0.1,0.1-0.2,0.1-0.3c0.2-0.3,0.4-0.5,0.7-0.7c0.3-0.2,0.6-0.2,1-0.2s0.7,0.1,1,0.2
				c0.3,0.2,0.5,0.4,0.7,0.7c0.1,0.1,0.1,0.2,0.2,0.3c0,0.1,0.1,0.2,0.1,0.3c0,0.1,0,0.3,0,0.5c0,0.2,0,0.4,0,0.7c0,0.3,0,0.5,0,0.7
				c0,0.2,0,0.3,0,0.5c0,0.1-0.1,0.3-0.1,0.4c0,0.1-0.1,0.2-0.1,0.3l-1.7,4.7H84.1z M84.9,107.4c0,0.2,0.1,0.4,0.2,0.5
				c0.1,0.1,0.3,0.2,0.5,0.2c0.2,0,0.3-0.1,0.5-0.2c0.1-0.1,0.2-0.3,0.2-0.5v-1.7c0-0.2-0.1-0.4-0.2-0.5c-0.1-0.1-0.3-0.2-0.5-0.2
				c-0.2,0-0.3,0.1-0.5,0.2c-0.1,0.1-0.2,0.3-0.2,0.5V107.4z"/>
			<path d="M88.9,113l1.5-3.9l0,0c0,0-0.1,0.1-0.2,0.1c-0.1,0-0.2,0-0.4,0c-0.2,0-0.5-0.1-0.6-0.2c-0.2-0.1-0.4-0.3-0.5-0.4
				c-0.1-0.1-0.1-0.2-0.1-0.3c0-0.1-0.1-0.2-0.1-0.4c0-0.2,0-0.4-0.1-0.6s0-0.5,0-0.9c0-0.3,0-0.6,0-0.7c0-0.2,0-0.4,0.1-0.5
				c0-0.1,0-0.2,0.1-0.3c0-0.1,0.1-0.2,0.1-0.3c0.2-0.3,0.4-0.5,0.7-0.7c0.3-0.2,0.6-0.2,1-0.2s0.7,0.1,1,0.2
				c0.3,0.2,0.5,0.4,0.7,0.7c0.1,0.1,0.1,0.2,0.2,0.3c0,0.1,0.1,0.2,0.1,0.3c0,0.1,0,0.3,0,0.5c0,0.2,0,0.4,0,0.7c0,0.3,0,0.5,0,0.7
				c0,0.2,0,0.3,0,0.5c0,0.1-0.1,0.3-0.1,0.4c0,0.1-0.1,0.2-0.1,0.3l-1.7,4.7H88.9z M89.8,107.4c0,0.2,0.1,0.4,0.2,0.5
				c0.1,0.1,0.3,0.2,0.5,0.2c0.2,0,0.3-0.1,0.5-0.2c0.1-0.1,0.2-0.3,0.2-0.5v-1.7c0-0.2-0.1-0.4-0.2-0.5c-0.1-0.1-0.3-0.2-0.5-0.2
				c-0.2,0-0.3,0.1-0.5,0.2c-0.1,0.1-0.2,0.3-0.2,0.5V107.4z"/>
		</g>
	</g>
	<g>
		<path class="st5" d="M262,195h-27c-3.3,0-6-2.7-6-6l0,0c0-3.3,2.7-6,6-6h27c3.3,0,6,2.7,6,6l0,0C268,192.3,265.3,195,262,195z"/>
		<g>
			<path d="M241.9,194v-1.2l2.4-4.5c0.1-0.2,0.2-0.4,0.2-0.6s0-0.4,0-0.6c0-0.1,0-0.2,0-0.4c0-0.1,0-0.2-0.1-0.3
				c0-0.1-0.1-0.2-0.2-0.2s-0.2-0.1-0.4-0.1c-0.2,0-0.4,0.1-0.5,0.2s-0.2,0.3-0.2,0.5v0.8h-1.3v-0.7c0-0.3,0.1-0.5,0.2-0.8
				c0.1-0.2,0.2-0.5,0.4-0.6c0.2-0.2,0.4-0.3,0.6-0.4c0.2-0.1,0.5-0.2,0.8-0.2c0.3,0,0.6,0.1,0.9,0.2c0.2,0.1,0.5,0.3,0.6,0.5
				c0.2,0.2,0.3,0.5,0.3,0.7c0.1,0.3,0.1,0.6,0.1,0.9c0,0.2,0,0.4,0,0.6s0,0.3-0.1,0.4s-0.1,0.3-0.1,0.4s-0.1,0.3-0.2,0.5l-2,3.8
				h2.4v1.3H241.9z"/>
			<path d="M246.8,186.7c0-0.3,0.1-0.6,0.2-0.8s0.3-0.5,0.4-0.6s0.4-0.3,0.6-0.4c0.2-0.1,0.5-0.1,0.7-0.1s0.5,0,0.7,0.1
				c0.2,0.1,0.4,0.2,0.6,0.4s0.3,0.4,0.4,0.6s0.2,0.5,0.2,0.8v5.4c0,0.3-0.1,0.6-0.2,0.8c-0.1,0.2-0.3,0.5-0.4,0.6s-0.4,0.3-0.6,0.4
				c-0.2,0.1-0.5,0.1-0.7,0.1s-0.5,0-0.7-0.1c-0.2-0.1-0.4-0.2-0.6-0.4s-0.3-0.4-0.4-0.6c-0.1-0.2-0.2-0.5-0.2-0.8V186.7z
				 M248.1,192.1c0,0.2,0.1,0.3,0.2,0.5c0.1,0.1,0.3,0.2,0.5,0.2s0.3-0.1,0.5-0.2c0.1-0.1,0.2-0.3,0.2-0.5v-5.4
				c0-0.2-0.1-0.3-0.2-0.5s-0.3-0.2-0.5-0.2s-0.3,0.1-0.5,0.2c-0.1,0.1-0.2,0.3-0.2,0.5V192.1z"/>
			<path d="M251.6,186.7c0-0.3,0.1-0.6,0.2-0.8s0.3-0.5,0.4-0.6s0.4-0.3,0.6-0.4c0.2-0.1,0.5-0.1,0.7-0.1s0.5,0,0.7,0.1
				c0.2,0.1,0.4,0.2,0.6,0.4s0.3,0.4,0.4,0.6s0.2,0.5,0.2,0.8v5.4c0,0.3-0.1,0.6-0.2,0.8c-0.1,0.2-0.3,0.5-0.4,0.6s-0.4,0.3-0.6,0.4
				c-0.2,0.1-0.5,0.1-0.7,0.1s-0.5,0-0.7-0.1c-0.2-0.1-0.4-0.2-0.6-0.4s-0.3-0.4-0.4-0.6c-0.1-0.2-0.2-0.5-0.2-0.8V186.7z
				 M252.9,192.1c0,0.2,0.1,0.3,0.2,0.5c0.1,0.1,0.3,0.2,0.5,0.2s0.3-0.1,0.5-0.2c0.1-0.1,0.2-0.3,0.2-0.5v-5.4
				c0-0.2-0.1-0.3-0.2-0.5s-0.3-0.2-0.5-0.2s-0.3,0.1-0.5,0.2c-0.1,0.1-0.2,0.3-0.2,0.5V192.1z"/>
		</g>
	</g>
	<g>
		<path class="st5" d="M179,195h-27c-3.3,0-6-2.7-6-6l0,0c0-3.3,2.7-6,6-6h27c3.3,0,6,2.7,6,6l0,0C185,192.3,182.3,195,179,195z"/>
		<g>
			<path d="M160.5,194v-7.9l-1.3,1v-1.4l1.3-1h1.3v9.3H160.5z"/>
			<path d="M163.8,186.7c0-0.3,0.1-0.6,0.2-0.8s0.3-0.5,0.4-0.6s0.4-0.3,0.6-0.4c0.2-0.1,0.5-0.1,0.7-0.1s0.5,0,0.7,0.1
				c0.2,0.1,0.4,0.2,0.6,0.4s0.3,0.4,0.4,0.6s0.2,0.5,0.2,0.8v5.4c0,0.3-0.1,0.6-0.2,0.8c-0.1,0.2-0.3,0.5-0.4,0.6s-0.4,0.3-0.6,0.4
				c-0.2,0.1-0.5,0.1-0.7,0.1s-0.5,0-0.7-0.1c-0.2-0.1-0.4-0.2-0.6-0.4s-0.3-0.4-0.4-0.6c-0.1-0.2-0.2-0.5-0.2-0.8V186.7z
				 M165.1,192.1c0,0.2,0.1,0.3,0.2,0.5c0.1,0.1,0.3,0.2,0.5,0.2s0.3-0.1,0.5-0.2c0.1-0.1,0.2-0.3,0.2-0.5v-5.4
				c0-0.2-0.1-0.3-0.2-0.5s-0.3-0.2-0.5-0.2s-0.3,0.1-0.5,0.2c-0.1,0.1-0.2,0.3-0.2,0.5V192.1z"/>
			<path d="M168.6,186.7c0-0.3,0.1-0.6,0.2-0.8s0.3-0.5,0.4-0.6s0.4-0.3,0.6-0.4c0.2-0.1,0.5-0.1,0.7-0.1s0.5,0,0.7,0.1
				c0.2,0.1,0.4,0.2,0.6,0.4s0.3,0.4,0.4,0.6s0.2,0.5,0.2,0.8v5.4c0,0.3-0.1,0.6-0.2,0.8c-0.1,0.2-0.3,0.5-0.4,0.6s-0.4,0.3-0.6,0.4
				c-0.2,0.1-0.5,0.1-0.7,0.1s-0.5,0-0.7-0.1c-0.2-0.1-0.4-0.2-0.6-0.4s-0.3-0.4-0.4-0.6c-0.1-0.2-0.2-0.5-0.2-0.8V186.7z
				 M169.9,192.1c0,0.2,0.1,0.3,0.2,0.5c0.1,0.1,0.3,0.2,0.5,0.2s0.3-0.1,0.5-0.2c0.1-0.1,0.2-0.3,0.2-0.5v-5.4
				c0-0.2-0.1-0.3-0.2-0.5s-0.3-0.2-0.5-0.2s-0.3,0.1-0.5,0.2c-0.1,0.1-0.2,0.3-0.2,0.5V192.1z"/>
		</g>
	</g>
	<g>
		<path class="st5" d="M96,195H69c-3.3,0-6-2.7-6-6l0,0c0-3.3,2.7-6,6-6h27c3.3,0,6,2.7,6,6l0,0C102,192.3,99.3,195,96,195z"/>
		<g>
			<path d="M77.5,194v-7.9l-1.3,1v-1.4l1.3-1h1.3v9.3H77.5z"/>
			<path d="M80.8,194v-1.2l2.4-4.5c0.1-0.2,0.2-0.4,0.2-0.6s0-0.4,0-0.6c0-0.1,0-0.2,0-0.4c0-0.1,0-0.2-0.1-0.3
				c0-0.1-0.1-0.2-0.2-0.2s-0.2-0.1-0.4-0.1c-0.2,0-0.4,0.1-0.5,0.2s-0.2,0.3-0.2,0.5v0.8h-1.3v-0.7c0-0.3,0.1-0.5,0.2-0.8
				c0.1-0.2,0.2-0.5,0.4-0.6c0.2-0.2,0.4-0.3,0.6-0.4c0.2-0.1,0.5-0.2,0.8-0.2c0.3,0,0.6,0.1,0.9,0.2c0.2,0.1,0.5,0.3,0.6,0.5
				c0.2,0.2,0.3,0.5,0.3,0.7c0.1,0.3,0.1,0.6,0.1,0.9c0,0.2,0,0.4,0,0.6s0,0.3-0.1,0.4s-0.1,0.3-0.1,0.4s-0.1,0.3-0.2,0.5l-2,3.8
				h2.4v1.3H80.8z"/>
			<path d="M85.6,186.7c0-0.3,0.1-0.6,0.2-0.8s0.3-0.5,0.4-0.6s0.4-0.3,0.6-0.4c0.2-0.1,0.5-0.1,0.7-0.1s0.5,0,0.7,0.1
				c0.2,0.1,0.4,0.2,0.6,0.4s0.3,0.4,0.4,0.6s0.2,0.5,0.2,0.8v5.4c0,0.3-0.1,0.6-0.2,0.8c-0.1,0.2-0.3,0.5-0.4,0.6s-0.4,0.3-0.6,0.4
				c-0.2,0.1-0.5,0.1-0.7,0.1s-0.5,0-0.7-0.1c-0.2-0.1-0.4-0.2-0.6-0.4s-0.3-0.4-0.4-0.6c-0.1-0.2-0.2-0.5-0.2-0.8V186.7z
				 M86.9,192.1c0,0.2,0.1,0.3,0.2,0.5c0.1,0.1,0.3,0.2,0.5,0.2s0.3-0.1,0.5-0.2c0.1-0.1,0.2-0.3,0.2-0.5v-5.4
				c0-0.2-0.1-0.3-0.2-0.5s-0.3-0.2-0.5-0.2s-0.3,0.1-0.5,0.2c-0.1,0.1-0.2,0.3-0.2,0.5V192.1z"/>
		</g>
	</g>
</g>
<path class="st4" d="M181.5,252h39c5.8,0,10.5,4.7,10.5,10.5v18c0,5.8-4.7,10.5-10.5,10.5h-39c-5.8,0-10.5-4.7-10.5-10.5v-18
	C171,256.7,175.7,252,181.5,252z"/>
<path class="st28" d="M173,131h-14c-3.9,0-7-3.1-7-7v0c0-3.8,3.1-7,7-7h14c3.9,0,7,3.1,7,7v0C180,127.9,176.9,131,173,131z"/>
<path class="st28" d="M256,131h-14c-3.9,0-7-3.1-7-7v0c0-3.8,3.1-7,7-7h14c3.9,0,7,3.1,7,7v0C263,127.9,259.9,131,256,131z"/>
<path class="st28" d="M89,131H75c-3.8,0-7-3.1-7-7v0c0-3.8,3.1-7,7-7h14c3.8,0,7,3.1,7,7v0C96,127.9,92.9,131,89,131z"/>
<path class="st28" d="M173,212h-14c-3.9,0-7-3.1-7-7l0,0c0-3.9,3.1-7,7-7h14c3.9,0,7,3.1,7,7l0,0C180,208.9,176.9,212,173,212z"/>
<path class="st28" d="M256,212h-14c-3.9,0-7-3.1-7-7l0,0c0-3.9,3.1-7,7-7h14c3.9,0,7,3.1,7,7l0,0C263,208.9,259.9,212,256,212z"/>
<path class="st28" d="M89,212H75c-3.8,0-7-3.1-7-7l0,0c0-3.9,3.1-7,7-7h14c3.8,0,7,3.1,7,7l0,0C96,208.9,92.9,212,89,212z"/>
</svg>
